<?xml version="1.0" encoding="utf-8"?>
<!-- Generator: Adobe Illustrator 21.0.0, SVG Export Plug-In . SVG Version: 6.00 Build 0)  -->
<svg version="1.1" id="图层_1" xmlns="http://www.w3.org/2000/svg" xmlns:xlink="http://www.w3.org/1999/xlink" x="0px" y="0px"
	 viewBox="0 0 177 60" style="enable-background:new 0 0 177 60;" xml:space="preserve">
<style type="text/css">
	.st0{fill:#FFCD00;}
	.st1{fill:#FF001F;}
</style>
<g>
	<path class="st0" d="M57.5,16.5c-0.4-1.7-1.5-3.3-3.4-4.6c-1.8-1.3-4.1-2-6.7-2c-1.7,0-3.3,0.3-4.8,0.9c-0.3,0.1-0.5,0.2-0.7,0.3
		c-1.2,0.6-2.3,1.4-3.4,2.3V5.9V0H23l0.7,0c-1.9-0.1-3.7,0.1-5.3,0.5c-3.2,0.9-5.6,2.4-7.1,4.6c-1.5,2.2-3,5.9-4.5,11.1l-1.5,5.3
		l14.4,4l2.7-9.6c0.5-1.7,0.9-3,1.3-3.9c0.2-0.6,0.4-1,0.6-1.2c0.5-0.6,1.3-0.8,2.3-0.5c1.2,0.3,1.8,1,1.9,1.9
		c0.1,0.9-0.3,2.8-1,5.6l-3.8,13.9l-3.3,11.8c-0.7,2.7-1.4,4.4-1.9,5.1c-0.5,0.7-1.4,0.9-2.5,0.6c-1.1-0.3-1.7-0.9-1.8-1.8
		c-0.1-0.9,0.3-2.9,1.1-5.9l1.9-7l-14.4-4l-0.6,2.2C0.6,38.6-0.1,42.8,0,45.4c0.1,2.6,1.4,5.2,3.6,7.8c2.3,2.6,5.5,4.4,9.5,5.5
		c2.7,0.8,5.2,1.1,7.5,1l-0.1,0h18.1V34v-9.2c0-2.5,0.2-4.1,0.5-5c0.3-0.8,0.9-1.3,1.8-1.3c0.7,0,1.2,0.2,1.5,0.6
		c0.2,0.2,0.3,0.4,0.4,0.6c0.3,0.8,0.4,2.6,0.4,5.5v34.5h14.9V26C58.1,21.4,57.9,18.2,57.5,16.5z"/>
	<path class="st0" d="M95.7,16.3l-0.5,1c-0.7-2.2-2.1-4-4.4-5.6C88.3,9.9,84.5,9,79.5,9c-4.2,0-7.6,0.8-10.3,2.4
		c-2.6,1.6-4.4,3.4-5.3,5.4c-0.9,2.1-1.3,5-1.3,8.8v3.3h14v-5.1c0-2.7,0.1-4.4,0.4-5.1c0.2-0.7,0.9-1,1.9-1c0.9,0,1.5,0.4,1.9,1.2
		c0.4,0.8,0.6,2.4,0.6,5c0,2-0.2,3.4-0.5,4.1c-0.3,0.7-3,2-7.9,3.9c-4.6,1.8-7.4,3.3-8.6,4.7c-1.2,1.3-1.7,3.8-1.7,7.5v4
		c0,4.9,1.1,8.2,3.3,9.6c2.2,1.5,4.6,2.2,7.2,2.2c2,0,3.7-0.4,5.2-1.3c1.3-0.8,2.3-1.9,3.2-3.3v4.7H86h5.9l0,0
		c1.8,0,3.4-2.1,4.1-3.7c0.2-0.5,0.4-1.1,0.4-1.8V39.5c0-4.8,0.1-7.8,0.4-9.1c0.3-1.3,1.1-2.3,2.4-3.1c1.3-0.7,3.3-1.1,6-1.1V9
		C101,9.3,97.9,11.7,95.7,16.3z M81.3,45.7c0,2.5-0.1,4-0.4,4.6c-0.3,0.6-0.9,0.9-1.8,0.9c-1,0-1.6-0.4-2-1.1
		c-0.3-0.7-0.5-2.4-0.5-4.9c0-2.2,0.2-3.9,0.6-5.1c0.4-1.2,1.8-2.6,4.2-4.4V45.7z"/>
	<path class="st0" d="M123.8,0v59.8h-15.4V0H123.8z"/>
	<rect x="129.2" class="st1" width="15.4" height="7.8"/>
	<rect x="129.2" y="10.8" class="st0" width="15.4" height="49"/>
	<path class="st0" d="M172.4,29.3l-18,7l3.9,9.9c0.8,2.1,1.5,3.3,2,3.8c0.5,0.5,1.2,0.6,2.1,0.2c1.1-0.4,1.6-1.1,1.6-2
		c0-0.9-0.4-2.5-1.3-4.8l-2.4-6l13.2-5.2l1.3,3.4c1.1,2.8,1.8,5.1,2,6.7c0.2,1.7,0,3.6-0.6,5.8c-0.6,2.2-1.8,4.2-3.5,5.8
		c-1.7,1.6-4,3.1-7,4.2c-2.9,1.2-5.7,1.7-8.3,1.8c-2.6,0-4.8-0.4-6.6-1.4c-1.8-1-3.3-2.3-4.5-3.9c-1.2-1.6-2.4-4.1-3.8-7.5
		l-5.2-13.3c-1.6-4-2.3-7.3-2.1-10.1c0.2-2.7,1.2-5.2,3.2-7.4c2-2.2,4.6-3.9,7.7-5.2c3.9-1.5,7.4-2,10.5-1.6
		c3.1,0.5,5.7,1.7,7.6,3.8c2,2,3.8,5.3,5.6,9.7L172.4,29.3z M155.6,27.3l-1.3-3.3c-0.9-2.4-1.6-3.8-2.2-4.4c-0.5-0.6-1.2-0.7-2-0.4
		c-1,0.4-1.4,0.9-1.4,1.6c0,0.7,0.5,2.3,1.5,4.9l1.3,3.3L155.6,27.3z"/>
</g>
</svg>
