<?xml version="1.0" encoding="utf-8"?>
<!-- Generator: Adobe Illustrator 21.0.1, SVG Export Plug-In . SVG Version: 6.00 Build 0)  -->
<svg version="1.1" id="レイヤー_1" xmlns="http://www.w3.org/2000/svg" xmlns:xlink="http://www.w3.org/1999/xlink" x="0px"
	 y="0px" viewBox="0 0 294.5 52.6" style="enable-background:new 0 0 294.5 52.6;" xml:space="preserve">
<style type="text/css">
	.st0{fill:#231815;}
	.st1{fill:#030000;}
</style>
<g>
	<g>
		<path class="st0" d="M22.8,29.1c-0.6-0.2-1.3-0.9-2.2-1.8L9.2,14.3l9.5-9.4c0.2-0.2,0.4-0.3,0.5-0.5c0.2-0.1,0.5-0.4,0.9-0.9
			c0.6-0.5,1.2-0.9,1.7-1c0.6-0.1,1.3-0.2,2.1-0.3l0.3,0V1.4h-8.4v0.8l0.2,0c0.7,0.1,1.2,0.2,1.5,0.3c0.2,0.1,0.3,0.2,0.3,0.6
			c0,0.2-0.1,0.6-0.8,1.2l0,0l0,0c0,0,0,0,0,0L6.5,15V5.1c0-1.8,0.9-2.8,2.8-2.8l0.3,0V1.4H0v0.9l0.3,0c0.8,0,1.4,0.2,2,0.6
			C2.8,3.3,3,4,3,5.1v21.7c0,0.7-0.1,1.3-0.4,1.7c-0.3,0.4-0.6,0.7-1,0.9c-0.4,0.2-0.9,0.3-1.4,0.3l-0.3,0v0.8h9.6v-0.8l-0.3,0
			c-1.9-0.1-2.8-1-2.8-2.9V16.5l12.3,13.9l0.1,0.1h6.6v-0.8l-0.2,0C24.3,29.5,23.5,29.4,22.8,29.1z"/>
		<path class="st0" d="M52.3,4.8c-1.4-1.4-3.1-2.4-4.9-3.2c-1.8-0.7-3.7-1.1-5.7-1.1c-2,0-4,0.4-5.8,1.1c-1.9,0.8-3.5,1.8-5,3.2
			c-1.4,1.4-2.6,3-3.4,4.9c-0.8,1.9-1.2,3.9-1.2,6c0,2.8,0.7,5.4,2,7.7c1.4,2.3,3.2,4.2,5.6,5.6c2.4,1.4,5,2.1,7.8,2.1
			c2.8,0,5.4-0.7,7.7-2.1c2.3-1.4,4.2-3.3,5.5-5.6c1.3-2.3,2-4.9,2-7.6c0-2.2-0.4-4.3-1.2-6.2C54.9,7.9,53.7,6.2,52.3,4.8z M41.6,2
			c1.5,0,3.1,0.4,4.9,1.1c1.7,0.7,3.2,2.1,4.5,4.2c1.3,2.1,2,5,2,8.8c0,2.6-0.3,4.8-1,6.6c-0.7,1.8-1.6,3.2-2.7,4.2
			c-1.1,1-2.3,1.8-3.6,2.2c-2.8,1-5.6,0.9-8.2-0.1c-1.3-0.5-2.6-1.3-3.7-2.4c-1.1-1.1-2-2.6-2.6-4.4c-0.6-1.8-1-3.9-1-6.3
			c0-2.7,0.4-5.1,1.2-6.9c0.8-1.9,1.8-3.3,2.9-4.3c1.2-1,2.4-1.7,3.7-2.1C39.2,2.2,40.5,2,41.6,2z"/>
		<path class="st0" d="M78.5,18.9c-0.4-0.6-0.8-1.1-1.3-1.6c-0.6-0.5-1.2-1-1.8-1.3c-0.6-0.3-1.4-0.6-2.2-0.8
			c-0.5-0.1-0.9-0.2-1.4-0.3c1.4-0.5,2.6-1.2,3.6-2.1c1.2-1.1,1.8-2.6,1.8-4.4c0-1-0.2-1.9-0.6-2.7c-0.4-0.8-1-1.6-1.7-2.2
			C74,2.8,73.1,2.3,72,2c-1.1-0.4-2.2-0.5-3.5-0.5h-9.6v0.9h0.6c0.8,0,1.3,0.2,1.8,0.7C61.7,3.5,62,4.3,62,5.2v21.6
			c0,1-0.2,1.7-0.7,2.2c-0.5,0.5-1,0.7-1.7,0.7h-0.7v0.9h11c2.5,0,4.4-0.4,5.9-1.2c1-0.6,1.9-1.4,2.7-2.5c0.8-1.1,1.2-2.5,1.2-4
			c0-0.7-0.1-1.4-0.3-2.1C79.2,20.1,78.9,19.4,78.5,18.9z M65.5,15.9h2.7c1.2,0,2.2,0.2,3.2,0.5c1,0.3,1.8,0.8,2.4,1.3
			c0.6,0.6,1.1,1.3,1.5,2.1c0.4,0.8,0.5,1.8,0.5,2.8c0,1.4-0.4,2.8-1.1,3.9c-1.1,1.7-2.9,2.5-5.4,2.5c-1.2,0-2.1-0.2-2.7-0.5
			c-0.5-0.3-0.9-0.6-1-1c-0.1-0.4-0.2-1-0.2-1.6V15.9z M72.6,11.6c-0.4,0.7-0.8,1.3-1.2,1.6c-0.4,0.3-0.8,0.6-1.2,0.8
			c-0.6,0.3-1.7,0.4-3.1,0.4h-1.6V3.2c0.8-0.2,1.6-0.4,2.3-0.4c0.8,0,1.5,0.2,2.2,0.5c0.7,0.3,1.3,0.8,1.8,1.3
			c0.5,0.6,0.9,1.2,1.1,2c0.3,0.7,0.4,1.5,0.4,2.3C73.2,10,73,10.9,72.6,11.6z"/>
		<path class="st0" d="M99.5,25.5l-0.1,0.2c-0.2,0.7-0.6,1.3-0.9,1.8c-0.4,0.5-0.8,0.9-1.5,1.2c-0.6,0.3-1.4,0.4-2.4,0.4h-4.2
			c-0.9,0-1.5-0.2-1.8-0.7c-0.3-0.5-0.4-1.1-0.4-1.9v-9.9h5.2c0.5,0,1,0,1.4,0.1l0,0c0.2,0,0.5,0.1,0.7,0.2c0.3,0.1,0.6,0.3,0.9,0.7
			c0.3,0.4,0.5,0.9,0.6,1.6l0,0.2h0.8v-7h-0.8l0,0.2c-0.1,1.1-0.5,1.8-1.2,2.1c-0.8,0.3-1.7,0.5-2.7,0.5h-5V2.9h5.7
			c3.1,0,4.5,1.1,4.5,3.3v0.3h0.8v-5H81.7v0.9h0.7c0.9,0,1.5,0.3,1.8,0.8c0.4,0.6,0.6,1.3,0.6,2.1v21.5c0,1-0.3,1.8-0.8,2.2
			c-0.5,0.4-1.1,0.7-1.6,0.7h-0.7v0.9h17.5l1.1-5H99.5z"/>
	</g>
	<g>
		<path class="st0" d="M133.7,25.4c-0.4,0.9-0.8,1.7-1.1,2.2c-0.3,0.5-0.8,0.8-1.4,1.1c-0.6,0.2-1.4,0.4-2.5,0.4h-2.5
			c-1.3,0-2.3-0.2-2.9-0.7c-0.5-0.4-0.8-1.2-0.8-2.4V5.2c0-1.1,0.3-1.9,0.8-2.3c0.6-0.4,1.2-0.6,2-0.7l0.3,0V1.4H116v0.9l0.3,0
			c0.8,0,1.4,0.3,2,0.7c0.5,0.4,0.8,1.2,0.8,2.3v21.6c0,0.9-0.2,1.6-0.7,2.1c-0.5,0.5-1,0.7-1.7,0.7H116v0.9h17.5l1.2-5.2h-0.9
			L133.7,25.4z"/>
		<path class="st0" d="M154.7,25.7c-0.2,0.7-0.6,1.3-0.9,1.8c-0.4,0.5-0.8,0.9-1.5,1.2c-0.6,0.3-1.4,0.4-2.4,0.4h-4.2
			c-0.9,0-1.5-0.2-1.8-0.7c-0.3-0.5-0.4-1.1-0.4-1.9v-9.9h5.2c0.5,0,1,0,1.4,0.1l0,0c0.2,0,0.5,0.1,0.7,0.2c0.3,0.1,0.6,0.3,0.9,0.7
			c0.3,0.4,0.5,0.9,0.6,1.6l0,0.2h0.8v-7h-0.8l0,0.2c-0.1,1.1-0.5,1.8-1.2,2.1c-0.8,0.3-1.7,0.5-2.7,0.5h-5V2.9h5.7
			c3.1,0,4.5,1.1,4.5,3.3v0.3h0.8v-5h-17.6v0.9h0.7c0.9,0,1.5,0.3,1.8,0.8c0.4,0.6,0.6,1.3,0.6,2.1v21.5c0,1-0.3,1.8-0.8,2.2
			c-0.5,0.4-1.1,0.7-1.6,0.7h-0.7v0.9h17.5l1.1-5h-0.8L154.7,25.7z"/>
		<path class="st0" d="M182.5,0.1c-0.6,0.9-1.5,1.3-2.6,1.3h-18.5c-0.4,0-0.8,0-1.1-0.1c-0.3,0-0.6-0.1-0.8-0.2
			c-0.2-0.1-0.4-0.2-0.5-0.3c-0.1-0.1-0.3-0.4-0.5-0.7L158.3,0h-0.7v7.5h0.8l0-0.2c0.1-1.8,0.7-2.9,1.5-3.4c0.9-0.5,2-0.8,3.3-0.8
			h5.4v23.7c0,1-0.3,1.8-0.8,2.2c-0.5,0.4-1.2,0.7-2,0.7l-0.3,0v0.8h9.6v-0.8l-0.3,0c-1.9-0.1-2.8-1-2.8-2.9V3.1h5.4
			c1.3,0,2.5,0.3,3.4,0.8c0.9,0.5,1.4,1.6,1.5,3.4l0,0.3h0.8V0h-0.7L182.5,0.1z"/>
		<path class="st0" d="M212.8,0.1c-0.6,0.9-1.5,1.3-2.6,1.3h-18.5c-0.4,0-0.8,0-1.1-0.1c-0.3,0-0.6-0.1-0.8-0.2
			c-0.2-0.1-0.4-0.2-0.5-0.3c-0.1-0.1-0.3-0.4-0.5-0.7L188.6,0h-0.7v7.5h0.8l0-0.2c0.1-1.8,0.7-2.9,1.5-3.4c0.9-0.5,2-0.8,3.3-0.8
			h5.4v23.7c0,1-0.3,1.8-0.8,2.2c-0.5,0.4-1.2,0.7-2,0.7l-0.3,0v0.8h9.6v-0.8l-0.3,0c-1.9-0.1-2.8-1-2.8-2.9V3.1h5.4
			c1.3,0,2.5,0.3,3.4,0.8c0.9,0.5,1.4,1.6,1.5,3.4l0,0.3h0.8V0h-0.7L212.8,0.1z"/>
		<path class="st0" d="M235.4,2.3l0.2,0c1.2,0.1,2,0.4,2.3,1c0.3,0.6,0.5,1.2,0.5,2v15.6c0,3.5-1.2,6-3.4,7.5
			c-0.8,0.5-1.6,0.9-2.5,1.1c-0.9,0.2-1.6,0.3-2.3,0.3c-1.5,0-2.9-0.4-4.1-1.2c-1.2-0.8-2.1-1.9-2.7-3.3c-0.6-1.3-0.9-3.4-0.9-6.2
			v-14c0-0.7,0.2-1.3,0.5-1.9c0.3-0.5,1.1-0.9,2.3-1l0.2,0V1.4h-9.5v0.9l0.3,0c1.2,0.1,1.9,0.4,2.2,0.9c0.3,0.5,0.5,1.2,0.5,2v14.2
			c0,1.2,0.1,2.3,0.2,3.4c0.1,1.1,0.5,2.2,1.1,3.2c0.8,1.5,2,2.7,3.7,3.7c1.7,1,3.5,1.5,5.6,1.5c1.8,0,3.6-0.5,5.3-1.4
			c1.4-0.8,2.6-1.9,3.4-3.5v4.1h6.5v-0.8l-0.2,0c-0.6-0.1-1.2-0.3-1.6-0.4c-0.4-0.2-0.7-0.4-0.9-0.8c-0.2-0.4-0.3-0.9-0.3-1.6V5.2
			c0-0.6,0.2-1.3,0.5-1.9c0.3-0.6,1.1-0.9,2.3-1l0.3,0V1.4h-9.7V2.3z"/>
		<path class="st0" d="M273.1,1.2c-0.1,0.4-0.2,0.6-0.3,0.7c-0.1,0-0.2,0.2-0.8,0.2c-0.3,0-0.6,0-0.9-0.1l-2-0.6
			c-1.9-0.5-3.8-0.8-5.5-0.8c-2.8,0-5.4,0.7-7.8,2.1c-2.4,1.4-4.3,3.3-5.7,5.8c-1.4,2.4-2.1,5.1-2.1,7.9c0,1.9,0.3,3.7,1,5.5
			c0.7,1.8,1.7,3.4,3,4.8c1.3,1.4,2.9,2.6,4.8,3.4c1.9,0.8,4,1.3,6.3,1.3c2.2,0,4-0.3,5.4-1c1.4-0.6,3-1.6,4.8-3l0.1-0.1v-1.9
			l-0.5,0.5c-1.4,1.3-2.9,2.3-4.6,2.9c-1.7,0.6-3.3,0.9-4.7,0.9c-1.7,0-3.2-0.3-4.6-0.9c-1.4-0.6-2.6-1.6-3.7-2.8
			c-1.1-1.2-1.9-2.7-2.4-4.4c-0.6-1.7-0.8-3.5-0.8-5.5c0-2,0.3-3.9,0.9-5.7c0.6-1.7,1.4-3.2,2.4-4.4c1-1.2,2.2-2.2,3.6-2.9
			c1.4-0.7,2.9-1,4.5-1c1.2,0,2.4,0.2,3.8,0.7c1.3,0.4,2.5,1.1,3.6,2.1c1,0.9,1.6,2.1,1.9,3.4l0,0.2h0.8l0.3-7.4h-0.8L273.1,1.2z"/>
		<path class="st0" d="M293.7,25.5l-0.1,0.2c-0.2,0.7-0.6,1.3-0.9,1.8c-0.4,0.5-0.8,0.9-1.5,1.2c-0.6,0.3-1.4,0.4-2.4,0.4h-4.2
			c-0.9,0-1.5-0.2-1.8-0.7c-0.3-0.5-0.4-1.1-0.4-1.9v-9.9h5.2c0.5,0,1,0,1.4,0.1l0,0c0.2,0,0.5,0.1,0.7,0.2c0.3,0.1,0.6,0.3,0.9,0.7
			c0.3,0.4,0.5,0.9,0.6,1.6l0,0.2h0.8v-7h-0.8l0,0.2c-0.1,1.1-0.5,1.8-1.2,2.1c-0.8,0.3-1.7,0.5-2.7,0.5h-5V2.9h5.7
			c3.1,0,4.5,1.1,4.5,3.3v0.3h0.8v-5h-17.6v0.9h0.7c0.9,0,1.5,0.3,1.8,0.8c0.4,0.6,0.6,1.3,0.6,2.1v21.5c0,1-0.3,1.8-0.8,2.2
			c-0.5,0.4-1.1,0.7-1.6,0.7h-0.7v0.9h17.5l1.1-5H293.7z"/>
	</g>
</g>
<g>
	<g>
		<path class="st1" d="M5.5,46.8c-0.7,1.6-1.5,5-3.7,5c-0.9,0-1.6-0.6-1.6-1.3c0-0.9,1.1-2.4,4.1-3.4l0.5-1.4
			c-0.5,0.6-0.7,0.7-1.1,0.7c-0.8,0-1.3-0.6-1.3-1.7c0-2,2.2-3.9,3.8-3.9c0.4,0,0.5,0.1,0.7,0.3c0,0,0.2-0.2,0.4-0.2
			c0.5,0,0.5,0.2,0.7,0.2c0.1,0,0.3-0.3,0.6-0.5c0,0-1.1,1.7-1.7,2.8c-0.6,1.2-1.4,3.1-1.4,3.1c1.6-1,3.2-2.3,4.4-4.4l0.1,0.1
			C8.8,44.5,7,45.9,5.5,46.8z M0.5,50.4c0,0.4,0.4,0.7,0.7,0.7c1.2,0,2.5-2.2,3-3.8C2.8,47.7,0.5,49.2,0.5,50.4z M6.4,41.1
			c-1.1,0-2.8,3.4-2.8,4.6c0,0.3,0,0.4,0.3,0.4c0.9,0,2.8-4.1,2.8-4.7C6.7,41.2,6.6,41.1,6.4,41.1z"/>
		<path class="st1" d="M9.8,46.4c-0.6,0-1.1-0.4-1.1-1.1c0-1.2,1.2-2.9,1.8-4c0.1-0.2,0.2-0.4,0.5-0.4c0.5,0,0.4,0.2,0.6,0.2
			c0.1,0,0.5-0.5,0.7-0.5L10,44.9c-0.1,0.3-0.2,0.6-0.2,0.7c0,0.2,0.1,0.5,0.4,0.5c0.7,0,3.7-3.4,4.1-3.9l0.1,0.1
			C13.1,43.9,10.9,46.4,9.8,46.4z M12.5,39.8c-0.4,0-0.7-0.3-0.7-0.7c0-0.5,0.4-0.9,0.9-0.9c0.4,0,0.6,0.3,0.6,0.6
			C13.4,39.3,13,39.8,12.5,39.8z"/>
		<path class="st1" d="M14.7,46.4c-0.6,0-0.9-0.5-1-1.3c0-0.8,1.5-2.6,1.5-3.1c0-0.1,0-0.1-0.1-0.1c-0.4,0-0.5,0.5-1.1,0.5
			c-0.3,0-0.4-0.3-0.4-0.7c0-0.6,0.5-1.3,1-1.3c0.2,0,0.4,0.2,0.4,0.4c0,0.3-0.3,0.8-0.6,1.2c0.9-0.7,1.4-1.2,1.9-1.2
			c0.4,0,0.6,0.3,0.6,0.7c0,0.4-0.2,0.6-0.4,0.9l-1.4,2.4c-0.2,0.4-0.3,0.6-0.3,0.7c0,0.3,0.2,0.5,0.5,0.5c1.2,0,2.8-2,4.1-3.8
			l0.1,0.1C17.2,45.8,16,46.4,14.7,46.4z M14.7,40.7c-0.4,0-0.7,0.8-0.7,1.1c0,0.2,0.1,0.3,0.2,0.3c0.3-0.4,0.7-1,0.7-1.2
			C14.8,40.7,14.8,40.7,14.7,40.7z"/>
		<path class="st1" d="M21,41.6c-0.4,0.9-1.4,2.7-1.4,4c0,0.2,0.2,0.4,0.4,0.4c1,0,2.6-1.9,3.6-3.9l0.1,0.1c-1.3,2.4-2.6,4-4.2,4.1
			c-0.6,0-1.1-0.6-1.1-1.5c0-3,5.6-10.5,7.2-10.5c0.3,0,0.5,0.3,0.5,0.6C26.1,36.1,24.6,39.5,21,41.6z M25.1,34.8
			c-0.6,0-3,4.1-3.8,6.2c2.2-1.3,4-5,4-5.9C25.4,35,25.3,34.8,25.1,34.8z"/>
		<path class="st1" d="M27.8,37c-0.3,0.3-0.6,0.5-0.8,0.5c0,0-0.2,0-0.2-0.1c0-0.1,0.2-0.1,0.4-0.3c0.1-0.1,0.5-0.4,0.5-0.7
			c0-0.1,0-0.2-0.1-0.2c-0.4-0.2-0.7-0.4-0.7-0.9c0-0.6,0.5-1.1,1-1.1c0.4,0,0.8,0.4,0.8,0.8C28.7,35.8,28.4,36.3,27.8,37z"/>
		<path class="st1" d="M28.2,45.4c-0.4,0.5-1.1,1-2,1c-0.9,0-1.4-0.5-1.4-1.3c0-0.5,0.3-1,0.9-1c0.5,0,0.9,0.6,1.3,0.8
			c0.5-0.3,0.7-1.2,0.7-1.6c0-0.4-0.3-1-0.3-1.7c0-0.7,0.3-1.7,0.9-1.7c0.3,0,0.4,0.1,0.4,0.3c0,0.5-0.3,1-0.5,1.4
			c0,0,0.5,1.2,0.5,1.9c0,0.6-0.2,1.4-0.3,1.6c1.2-0.3,2.1-0.6,3.6-3.1l0.1,0.1C30.4,45,29.3,45.3,28.2,45.4z M25.8,44.5
			c-0.2,0-0.3,0.2-0.3,0.4c0,0.3,0.3,0.4,0.6,0.5c0.3,0.1,0.6,0,0.7-0.2C26.4,44.9,26.1,44.5,25.8,44.5z M28.3,40.1
			c-0.1,0-0.3,0.3-0.3,0.7c0,0.2,0,0.4,0.1,0.6c0.4-0.5,0.4-0.8,0.4-1.1C28.5,40.2,28.4,40.1,28.3,40.1z"/>
		<path class="st1" d="M38.6,41.4h1l-0.2,0.3h-1.3c-3.1,5.9-4.9,10.5-7.9,10.5c-1,0-1.8-0.7-1.8-1.6c0-0.9,0.8-1.9,1.7-1.9
			c0.4,0,0.9,0.4,0.9,0.9c0,0.5-0.4,0.8-1,0.8c-0.2,0-0.4-0.1-0.6-0.5c0.4-0.1,0.5-0.2,0.5-0.3c0-0.2-0.2-0.5-0.4-0.5
			c-0.3,0-0.9,0.7-0.9,1.5c0,0.7,0.7,1.2,1.5,1.2c2.3,0,3.4-4.6,6.5-10.3h-1.1l0.2-0.3H37c0.9-1.5,3.7-6,5.4-6
			c0.3,0,0.7,0.3,0.7,0.7C43.1,37.4,41.3,40.1,38.6,41.4z M42.1,35.7c-0.6,0-3.1,4.5-3.7,5.7c3.1-2.3,4-4.4,4-5.2
			C42.4,35.9,42.3,35.7,42.1,35.7z"/>
		<path class="st1" d="M44,46.4c-0.8,0-1.1-0.4-1.3-1c-0.6,0.8-1.2,1-1.7,1c-0.7,0-1.2-0.6-1.2-1.8c0-1.6,1.7-3.8,4-3.8
			c0.4,0,0.6,0.1,0.9,0.4c0,0,0.2-0.3,0.4-0.3c0.2,0,0.5,0.1,0.7,0.1c0.1,0,0.4-0.4,0.6-0.5L44,45c-0.2,0.5-0.3,0.6-0.3,0.8
			c0,0.2,0.1,0.4,0.4,0.4c0.7,0,2.9-2.1,4.4-4l0.1,0.1C46.8,44.6,44.9,46.4,44,46.4z M44,41.1c-1.5,0-3.2,3.4-3.2,4.4
			c0,0.4,0.1,0.6,0.4,0.6c0.7,0,1.1-0.7,1.4-1.2c0.7-1.2,1.8-3.1,1.8-3.4C44.4,41.4,44.2,41.1,44,41.1z"/>
		<path class="st1" d="M49.2,45.4c-0.4,0.5-1.1,1-2,1c-0.9,0-1.4-0.5-1.4-1.3c0-0.5,0.3-1,0.9-1c0.5,0,0.9,0.6,1.3,0.8
			c0.5-0.3,0.7-1.2,0.7-1.6c0-0.4-0.3-1-0.3-1.7c0-0.7,0.3-1.7,0.9-1.7c0.3,0,0.4,0.1,0.4,0.3c0,0.5-0.3,1-0.5,1.4
			c0,0,0.5,1.2,0.5,1.9c0,0.6-0.2,1.4-0.3,1.6c1.2-0.3,2.1-0.6,3.6-3.1l0.1,0.1C51.4,45,50.3,45.3,49.2,45.4z M46.8,44.5
			c-0.2,0-0.3,0.2-0.3,0.4c0,0.3,0.3,0.4,0.6,0.5c0.3,0.1,0.6,0,0.7-0.2C47.3,44.9,47.1,44.5,46.8,44.5z M49.2,40.1
			c-0.1,0-0.3,0.3-0.3,0.7c0,0.2,0,0.4,0.1,0.6c0.4-0.5,0.4-0.8,0.4-1.1C49.4,40.2,49.4,40.1,49.2,40.1z"/>
		<path class="st1" d="M54.4,41.4l-0.4,0.8c0.9-0.9,1.8-1.3,2.3-1.3c0.4,0,0.7,0.3,0.7,0.7c0,1-2.3,3.8-2.3,4.1
			c0,0.2,0.1,0.3,0.2,0.3c0.8,0,2.8-2.5,4-3.9l0.1,0.1c-1.4,1.8-3.2,4.1-4.4,4.1c-0.5,0-1-0.4-1-0.9c0-0.8,2.3-3.5,2.3-4.1
			c0-0.1-0.1-0.2-0.1-0.2c-0.6,0-1.5,0.8-1.9,1.4c-1.4,2.4-1.8,3.5-2.2,3.5c-0.3,0-0.5-0.1-0.6-0.1c-0.2,0-0.3,0.3-0.7,0.5
			c0.9-1.7,2.6-5,4.7-8.2c1.2-1.6,2.7-3.6,3.7-3.6c0.3,0,0.6,0.2,0.6,0.5C59.5,37.9,55.3,40.9,54.4,41.4z M58.6,35.2
			c-0.7,0-2.3,2.8-3.9,5.7c2.6-1.7,4.1-4.2,4.1-5.3C58.7,35.4,58.7,35.2,58.6,35.2z"/>
		<path class="st1" d="M58.6,46.4c-0.6,0-1.1-0.4-1.1-1.1c0-1.2,1.2-2.9,1.8-4c0.1-0.2,0.2-0.4,0.5-0.4c0.5,0,0.4,0.2,0.6,0.2
			c0.1,0,0.5-0.5,0.7-0.5l-2.3,4.3c-0.1,0.3-0.2,0.6-0.2,0.7c0,0.2,0.1,0.5,0.4,0.5c0.7,0,3.7-3.4,4.1-3.9l0.1,0.1
			C61.9,43.9,59.7,46.4,58.6,46.4z M61.3,39.8c-0.4,0-0.7-0.3-0.7-0.7c0-0.5,0.4-0.9,0.9-0.9c0.4,0,0.6,0.3,0.6,0.6
			C62.2,39.3,61.8,39.8,61.3,39.8z"/>
		<path class="st1" d="M67.6,43.9c-0.3,0.1-0.5,0.2-0.8,0.3c-0.4,0.7-1.8,2.2-3.5,2.2c-0.8,0-1.4-0.9-1.4-1.6c0-2,2.1-3.9,4-3.9
			c0.8,0,1.4,0.7,1.4,1.7c0,0.6-0.3,1.1-0.4,1.4c0.2,0,0.3-0.1,0.5-0.2c1-0.4,1.7-1.1,2.1-1.6l0.1,0.1
			C69.4,42.8,68.6,43.4,67.6,43.9z M65.9,41c-1.1,0-2.9,3.3-2.9,4.5c0,0.4,0.1,0.6,0.3,0.6c0.7,0,1.3-0.6,2.2-2.1
			c-0.7-0.2-1-0.5-1-0.9c0-0.4,0.3-0.6,0.6-0.6c0.2,0,0.4,0.1,0.4,0.4c0,0.3-0.5,0.4-0.5,0.4c0.1,0.3,0.5,0.5,0.7,0.5
			c0.6-1.2,0.7-1.8,0.7-2.4C66.4,41.2,66.2,41,65.9,41z"/>
		<path class="st1" d="M73.9,45.3c-0.5,0.6-1,1.1-1.8,1.1c-0.7,0-1-0.5-1-1.1c0-0.3,0-0.5,0.4-1.1l1.5-2.3c0.2-0.2,0.2-0.4,0.2-0.5
			c0-0.1-0.1-0.2-0.3-0.2c-0.5,0-1.8,0.9-3.1,3.1c-0.6,0.9-0.9,1.9-1.3,1.9c-0.2,0-0.5-0.2-0.7-0.2c-0.2,0-0.7,0.5-0.7,0.5l2.7-5.2
			c0.1-0.3,0.2-0.4,0.5-0.4c0.3,0,0.4,0.1,0.6,0.1c0.2,0,0.4-0.4,0.7-0.5l-0.9,1.7c1.2-1,1.9-1.5,2.7-1.5c0.5,0,0.8,0.3,0.8,0.8
			c0,0.3-0.1,0.6-0.3,1l-1.7,2.6c-0.2,0.3-0.3,0.5-0.3,0.6c0,0.2,0.1,0.3,0.4,0.3c0.3,0,0.9-0.4,1.5-1.1l2.6-2.9l0.1,0.1
			C76.3,42.7,73.9,45.3,73.9,45.3z"/>
		<path class="st1" d="M83.1,46.7c-0.3,0-0.6-0.1-0.8-0.4c-0.4,0.2-0.8,0.5-1.3,0.5c-0.4,0-0.7-0.4-0.8-0.8
			c-1.8,3.3-2.5,6.2-3.1,6.2c-0.4,0-0.9-0.2-0.9-0.2l-0.7,0.7c2.9-5,3.6-6.8,6.1-11.2c0.1-0.1,0.2-0.4,0.5-0.4
			c0.2,0,0.4,0.1,0.6,0.1c0.2,0,0.4-0.4,0.7-0.5l-0.3,0.5c0.2-0.2,0.6-0.3,0.9-0.3c0.7,0,1.2,0.7,1.2,1.5c0,1.7-1.7,3.2-2.6,3.9
			c0.2,0.2,0.4,0.4,0.6,0.4c1.4,0,3.4-2,4.8-4.3l0.1,0.1C86.7,44.6,84.7,46.7,83.1,46.7z M81,45.3c-0.2,0-0.5,0-0.5,0.2
			c0,0.3,0.2,0.7,0.5,0.7c0.4,0,0.5-0.2,0.8-0.5C81.6,45.5,81.3,45.3,81,45.3z M83.7,41.2c-1.2,0-2.9,3.7-3,4
			c0.2-0.1,0.2-0.1,0.5-0.1c0.3,0,0.9,0.5,0.9,0.5c0.9-1.1,2-3.2,2-4C84.1,41.3,83.9,41.2,83.7,41.2z"/>
		<path class="st1" d="M88.5,46.4c-0.6,0-0.9-0.5-1-1.3c0-0.8,1.5-2.6,1.5-3.1c0-0.1,0-0.1-0.1-0.1c-0.4,0-0.5,0.5-1.1,0.5
			c-0.3,0-0.4-0.3-0.4-0.7c0-0.6,0.5-1.3,1-1.3c0.2,0,0.4,0.2,0.4,0.4c0,0.3-0.3,0.8-0.6,1.2c0.9-0.7,1.4-1.2,1.9-1.2
			c0.4,0,0.6,0.3,0.6,0.7c0,0.4-0.2,0.6-0.4,0.9l-1.4,2.4c-0.2,0.4-0.3,0.6-0.3,0.7c0,0.3,0.2,0.5,0.5,0.5c1.2,0,2.8-2,4.1-3.8
			l0.1,0.1C90.9,45.8,89.7,46.4,88.5,46.4z M88.4,40.7c-0.4,0-0.7,0.8-0.7,1.1c0,0.2,0.1,0.3,0.2,0.3c0.3-0.4,0.7-1,0.7-1.2
			C88.6,40.7,88.5,40.7,88.4,40.7z"/>
		<path class="st1" d="M97.6,43.9c-0.3,0.1-0.5,0.2-0.8,0.3c-0.4,0.7-1.8,2.2-3.5,2.2c-0.8,0-1.4-0.9-1.4-1.6c0-2,2.1-3.9,4-3.9
			c0.8,0,1.4,0.7,1.4,1.7c0,0.6-0.3,1.1-0.4,1.4c0.2,0,0.3-0.1,0.5-0.2c1-0.4,1.7-1.1,2.1-1.6l0.1,0.1
			C99.4,42.8,98.5,43.4,97.6,43.9z M95.9,41c-1.1,0-2.9,3.3-2.9,4.5c0,0.4,0.1,0.6,0.3,0.6c0.7,0,1.3-0.6,2.2-2.1
			c-0.7-0.2-1-0.5-1-0.9c0-0.4,0.3-0.6,0.5-0.6c0.2,0,0.4,0.1,0.4,0.4c0,0.3-0.5,0.4-0.5,0.4c0.1,0.3,0.5,0.5,0.7,0.5
			c0.5-1.2,0.7-1.8,0.7-2.4C96.3,41.2,96.2,41,95.9,41z"/>
		<path class="st1" d="M101.5,46.7c-0.3,0-0.6-0.1-0.8-0.4c-0.4,0.2-0.8,0.5-1.3,0.5c-0.4,0-0.7-0.4-0.8-0.8
			c-1.8,3.3-2.5,6.2-3.1,6.2c-0.4,0-0.9-0.2-0.9-0.2l-0.7,0.7c2.9-5,3.6-6.8,6.1-11.2c0.1-0.1,0.2-0.4,0.5-0.4
			c0.2,0,0.4,0.1,0.6,0.1c0.2,0,0.4-0.4,0.7-0.5l-0.3,0.5c0.2-0.2,0.6-0.3,0.9-0.3c0.7,0,1.2,0.7,1.2,1.5c0,1.7-1.7,3.2-2.6,3.9
			c0.2,0.2,0.4,0.4,0.6,0.4c1.4,0,3.4-2,4.8-4.3l0.1,0.1C105,44.6,103.1,46.7,101.5,46.7z M99.3,45.3c-0.2,0-0.5,0-0.5,0.2
			c0,0.3,0.2,0.7,0.5,0.7c0.4,0,0.5-0.2,0.8-0.5C99.9,45.5,99.7,45.3,99.3,45.3z M102.1,41.2c-1.2,0-2.9,3.7-3,4
			c0.2-0.1,0.2-0.1,0.5-0.1c0.3,0,0.9,0.5,0.9,0.5c0.9-1.1,2-3.2,2-4C102.4,41.3,102.3,41.2,102.1,41.2z"/>
		<path class="st1" d="M110.8,43.9c-0.3,0.1-0.5,0.2-0.8,0.3c-0.4,0.7-1.8,2.2-3.5,2.2c-0.8,0-1.4-0.9-1.4-1.6c0-2,2.1-3.9,4-3.9
			c0.8,0,1.4,0.7,1.4,1.7c0,0.6-0.3,1.1-0.4,1.4c0.2,0,0.3-0.1,0.5-0.2c1-0.4,1.7-1.1,2.1-1.6l0.1,0.1
			C112.5,42.8,111.7,43.4,110.8,43.9z M109.1,41c-1.1,0-2.9,3.3-2.9,4.5c0,0.4,0.1,0.6,0.3,0.6c0.7,0,1.3-0.6,2.2-2.1
			c-0.7-0.2-1-0.5-1-0.9c0-0.4,0.3-0.6,0.5-0.6c0.2,0,0.4,0.1,0.4,0.4c0,0.3-0.5,0.4-0.5,0.4c0.1,0.3,0.5,0.5,0.7,0.5
			c0.6-1.2,0.7-1.8,0.7-2.4C109.5,41.2,109.4,41,109.1,41z"/>
		<path class="st1" d="M113.5,45.4c-0.4,0.5-1.1,1-2,1c-0.9,0-1.4-0.5-1.4-1.3c0-0.5,0.3-1,0.9-1c0.5,0,0.9,0.6,1.3,0.8
			c0.5-0.3,0.7-1.2,0.7-1.6c0-0.4-0.3-1-0.3-1.7c0-0.7,0.3-1.7,0.9-1.7c0.3,0,0.4,0.1,0.4,0.3c0,0.5-0.3,1-0.6,1.4
			c0,0,0.5,1.2,0.5,1.9c0,0.6-0.2,1.4-0.3,1.6c1.2-0.3,2.1-0.6,3.6-3.1l0.1,0.1C115.7,45,114.6,45.3,113.5,45.4z M111.1,44.5
			c-0.2,0-0.3,0.2-0.3,0.4c0,0.3,0.3,0.4,0.6,0.5c0.3,0.1,0.6,0,0.7-0.2C111.6,44.9,111.4,44.5,111.1,44.5z M113.5,40.1
			c-0.1,0-0.3,0.3-0.3,0.7c0,0.2,0,0.4,0.1,0.6c0.4-0.5,0.4-0.8,0.4-1.1C113.7,40.2,113.7,40.1,113.5,40.1z"/>
		<path class="st1" d="M117.6,46.4c-1,0-1.6-0.8-1.6-1.6c0-2.5,2.7-4,4.1-4c0.5,0,1,0.4,1,1c0,1.7-3.1,2.4-3.7,2.4
			c-0.2,0.4-0.3,0.6-0.3,1.2c0,0.4,0.1,0.7,0.5,0.7c1.8,0,4.5-2.9,5.1-4l0.1,0.1C122.3,43.1,119.5,46.4,117.6,46.4z M119.8,41
			c-0.5,0-1.3,1-2.2,2.7c1,0,2.6-1.7,2.6-2.3C120.2,41.2,120.1,41,119.8,41z"/>
		<path class="st1" d="M123.2,46.4c-0.6,0-0.9-0.5-1-1.3c0-0.8,1.5-2.6,1.5-3.1c0-0.1,0-0.1-0.1-0.1c-0.4,0-0.5,0.5-1.1,0.5
			c-0.3,0-0.4-0.3-0.4-0.7c0-0.6,0.6-1.3,1-1.3c0.2,0,0.4,0.2,0.4,0.4c0,0.3-0.3,0.8-0.6,1.2c0.9-0.7,1.4-1.2,1.9-1.2
			c0.4,0,0.6,0.3,0.6,0.7c0,0.4-0.2,0.6-0.4,0.9l-1.4,2.4c-0.2,0.4-0.3,0.6-0.3,0.7c0,0.3,0.2,0.5,0.5,0.5c1.2,0,2.8-2,4.1-3.8
			l0.1,0.1C125.7,45.8,124.5,46.4,123.2,46.4z M123.2,40.7c-0.4,0-0.7,0.8-0.7,1.1c0,0.2,0.1,0.3,0.2,0.3c0.3-0.4,0.7-1,0.7-1.2
			C123.3,40.7,123.3,40.7,123.2,40.7z"/>
	</g>
	<g>
		<path class="st0" d="M130.4,37.9c0.7-0.6,1.5-0.6,2.2-0.1c0.8,0.5,1.1,1.5,0.7,2.2c-0.5,0.9-1.5,1.3-2.4,1.5
			c-0.9,0.3-2.6,0.7-3,0.7l0,0c-0.1-0.4-0.6-2.1-0.8-3c-0.2-0.9-0.4-1.9,0.1-2.8c0.4-0.8,1.5-1,2.3-0.5
			C130.1,36.3,130.5,37,130.4,37.9L130.4,37.9z"/>
	</g>
</g>
</svg>
