<svg xmlns="http://www.w3.org/2000/svg" width="57" height="54"><path d="M56.95 37.1a1.363 1.363 0 0 1 0 .8q-.03.15-.45 1.2a9.32 9.32 0 0 1-1.57 2.4 10.582 10.582 0 0 1-3.07 2.3 11.715 11.715 0 0 1-13.8-2.3 8.989 8.989 0 0 1-1.56-2.4c-.27-.7-.43-1.1-.46-1.2-.02-.2-.03-.3-.03-.4s.01-.2.03-.4L44.59 3H12.42l8.53 34.1a1.363 1.363 0 0 1 0 .8 12.583 12.583 0 0 1-.46 1.2 9.365 9.365 0 0 1-1.54 2.4 11.724 11.724 0 0 1-16.9 0 9.947 9.947 0 0 1-1.54-2.4q-.42-1.05-.45-1.2a1.363 1.363 0 0 1 0-.8L9.02 1.2a1.462 1.462 0 0 0 .05-.2c.01 0 .02 0 .04-.1a.3.3 0 0 0 .1-.2.563.563 0 0 1 .14-.1.361.361 0 0 1 .27-.3.6.6 0 0 1 .37-.2.127.127 0 0 0 .13-.1h36.37a1.586 1.586 0 0 1 .93.3 1.441 1.441 0 0 1 .54.8l8.99 36zM10.49 42a7.61 7.61 0 0 0 4.3-1 7.08 7.08 0 0 0 2.29-2H3.9a7.4 7.4 0 0 0 2.31 2 7.581 7.581 0 0 0 4.28 1zm7.09-6L10.49 7.7 3.43 36h14.15zM46.49 7.7L39.43 36h14.15L46.49 7.7zm0 34.3a7.675 7.675 0 0 0 4.3-1 7.127 7.127 0 0 0 2.3-2H39.9a7.445 7.445 0 0 0 2.32 2 7.546 7.546 0 0 0 4.27 1zm0 9a1.48 1.48 0 0 1 1.06.5 1.213 1.213 0 0 1 .44 1 1.584 1.584 0 0 1-.44 1.1 1.385 1.385 0 0 1-1.06.4h-36a1.4 1.4 0 0 1-1.06-.4 1.584 1.584 0 0 1-.44-1.1 1.213 1.213 0 0 1 .44-1 1.5 1.5 0 0 1 1.06-.5h16.4l-2.9-37.4c0-.1.01-.2.02-.3a1.088 1.088 0 0 1 .07-.3l2.99-9a1.422 1.422 0 0 1 .54-.7 1.456 1.456 0 0 1 .9-.3 1.385 1.385 0 0 1 .86.3 1.422 1.422 0 0 1 .54.7l3.02 9 .06.3a.757.757 0 0 1 0 .3L30.12 51h16.37zM28.51 9.2l-1.5 4.5 1.5 19.2 1.46-19.2-1.46-4.5z" fill="#ccc" fill-rule="evenodd"/></svg>