<svg xmlns="http://www.w3.org/2000/svg" width="57" height="51"><path d="M55.49 51a1.946 1.946 0 0 0 .76-.2 1.422 1.422 0 0 0 .56-.5 2.334 2.334 0 0 0 .19-.8 1.321 1.321 0 0 0-.19-.7L29.79.8a.985.985 0 0 0-.52-.6 1.563 1.563 0 0 0-1.53 0 1.091 1.091 0 0 0-.55.6L.21 48.8a1.351 1.351 0 0 0-.21.7 1.708 1.708 0 0 0 .21.8 1.33 1.33 0 0 0 .55.5 1.945 1.945 0 0 0 .73.2h54zM4.07 48L28.51 4.6 52.94 48H4.07zm24.44-12a1.363 1.363 0 0 0 1.05-.4 1.584 1.584 0 0 0 .44-1.1v-15a1.584 1.584 0 0 0-.44-1.1 1.875 1.875 0 0 0-1.05-.4 1.906 1.906 0 0 0-1.06.4 1.584 1.584 0 0 0-.44 1.1v15a1.584 1.584 0 0 0 .44 1.1 1.385 1.385 0 0 0 1.06.4zm0 9a1.875 1.875 0 0 0 1.05-.4 1.584 1.584 0 0 0 .44-1.1v-3a1.584 1.584 0 0 0-.44-1.1 1.363 1.363 0 0 0-1.05-.4 1.385 1.385 0 0 0-1.06.4 1.584 1.584 0 0 0-.44 1.1v3a1.584 1.584 0 0 0 .44 1.1 1.906 1.906 0 0 0 1.06.4z" fill="#ccc" fill-rule="evenodd"/></svg>