<svg xmlns="http://www.w3.org/2000/svg" width="38" height="40"><path d="M37.73 38.33a.991.991 0 0 1-.05 1.41.877.877 0 0 1-.32.19 1.1 1.1 0 0 1-.37.06.909.909 0 0 1-.39-.08.856.856 0 0 1-.33-.23l-11.9-12.97a15.381 15.381 0 0 1-2.09 1.42 14.16 14.16 0 0 1-2.29 1.02 16.473 16.473 0 0 1-2.44.63 15.484 15.484 0 0 1-2.55.21 15.207 15.207 0 0 1-2.95-.28 14.957 14.957 0 0 1-2.79-.84 14.562 14.562 0 0 1-2.58-1.38 15.23 15.23 0 0 1-2.29-1.89 15.72 15.72 0 0 1-1.87-2.29 15.3 15.3 0 0 1-1.39-2.58 14.269 14.269 0 0 1-.85-2.79 15.68 15.68 0 0 1 0-5.9 14.269 14.269 0 0 1 .85-2.79 14.831 14.831 0 0 1 1.39-2.57 16.271 16.271 0 0 1 1.87-2.29 15.161 15.161 0 0 1 2.29-1.88 14.562 14.562 0 0 1 2.58-1.38 15.777 15.777 0 0 1 2.79-.85 15.149 15.149 0 0 1 5.9 0 15.777 15.777 0 0 1 2.79.85 14.562 14.562 0 0 1 2.58 1.38 15.161 15.161 0 0 1 2.29 1.88 16.271 16.271 0 0 1 1.87 2.29 14.831 14.831 0 0 1 1.39 2.57 14.985 14.985 0 0 1 .85 2.79 15.282 15.282 0 0 1 .28 2.95 15.1 15.1 0 0 1-.27 2.87 14.955 14.955 0 0 1-3.87 7.5l11.87 12.97zM1.99 14.99a12.478 12.478 0 0 0 1.03 5.06 13.108 13.108 0 0 0 6.92 6.92 12.944 12.944 0 0 0 10.12 0 13.108 13.108 0 0 0 6.92-6.92 12.919 12.919 0 0 0 0-10.11 12.981 12.981 0 0 0-2.79-4.13 13.351 13.351 0 0 0-4.13-2.78 12.944 12.944 0 0 0-10.12 0 13.351 13.351 0 0 0-4.13 2.78 12.981 12.981 0 0 0-2.79 4.13 12.5 12.5 0 0 0-1.03 5.05z" fill="#333" fill-rule="evenodd"/></svg>