<svg xmlns="http://www.w3.org/2000/svg" width="43.69" height="46"><path d="M43.39 44.099a1.153 1.153 0 0 1 .31.82 1.056 1.056 0 0 1-.37.8 1.015 1.015 0 0 1-.36.225 1.411 1.411 0 0 1-.43.067 1.2 1.2 0 0 1-.45-.09.942.942 0 0 1-.38-.269L28.03 30.737a17.393 17.393 0 0 1-2.41 1.629 16.85 16.85 0 0 1-2.63 1.179 17.536 17.536 0 0 1-2.81.719 17.3 17.3 0 0 1-2.93.247 17.549 17.549 0 0 1-3.39-.326 16.879 16.879 0 0 1-8.81-4.728 17.694 17.694 0 0 1-2.15-2.628 18.061 18.061 0 0 1-1.6-2.965 16.149 16.149 0 0 1-.97-3.211 17.6 17.6 0 0 1 0-6.784 16.239 16.239 0 0 1 .97-3.212 17.671 17.671 0 0 1 1.6-2.953 19.107 19.107 0 0 1 2.15-2.639 17.376 17.376 0 0 1 2.63-2.156 16.805 16.805 0 0 1 2.97-1.584 17.451 17.451 0 0 1 3.21-.978 17.269 17.269 0 0 1 6.78 0 17.451 17.451 0 0 1 3.21.978 17.162 17.162 0 0 1 2.97 1.584 17.376 17.376 0 0 1 2.63 2.156 19.107 19.107 0 0 1 2.15 2.639 17.671 17.671 0 0 1 1.6 2.953 16.239 16.239 0 0 1 .97 3.212 17.388 17.388 0 0 1 .33 3.393 17.209 17.209 0 0 1-.31 3.3 17.532 17.532 0 0 1-2.42 6.032 17.854 17.854 0 0 1-2.03 2.593l13.65 14.914zM2.29 17.26a14.387 14.387 0 0 0 1.18 5.816 15.092 15.092 0 0 0 7.96 7.963 14.954 14.954 0 0 0 11.64 0 15.092 15.092 0 0 0 7.96-7.963 14.9 14.9 0 0 0 0-11.623 15.167 15.167 0 0 0-3.21-4.75 15.375 15.375 0 0 0-4.75-3.2 14.954 14.954 0 0 0-11.64 0 15.375 15.375 0 0 0-4.75 3.2 15.167 15.167 0 0 0-3.21 4.75 14.417 14.417 0 0 0-1.18 5.807z" fill="#fff" fill-rule="evenodd"/></svg>