<svg xmlns="http://www.w3.org/2000/svg" width="49.938" height="40.718"><path d="M40.47 13.497a4.061 4.061 0 1 0 0-8.121 4.061 4.061 0 0 0 0 8.121zm0-5.4a1.349 1.349 0 1 1-.95.395 1.3 1.3 0 0 1 .95-.395zm5.4-8.1a4.049 4.049 0 0 1 4.06 4.033v9.467a8.786 8.786 0 0 1-2.32 5.563L27.125 39.521a3.733 3.733 0 0 1-1.292.884 4.144 4.144 0 0 1-3.111 0 4.006 4.006 0 0 1-1.319-.884l-2.03-2.03-3.586 2.083a3.7 3.7 0 0 1-.963.4 4.167 4.167 0 0 1-1.041.132c-.176 0-.352-.009-.527-.026a2.823 2.823 0 0 1-.528-.106 3.973 3.973 0 0 1-1.424-.7 4.345 4.345 0 0 1-1.054-1.173L.55 21.278a4.186 4.186 0 0 1-.5-1.5 4.007 4.007 0 0 1 .105-1.583 4.144 4.144 0 0 1 .7-1.409 3.887 3.887 0 0 1 1.173-1.042L23.597 3.299a1.316 1.316 0 0 1 1.041-.145 1.237 1.237 0 0 1 .8.645 1.252 1.252 0 0 1 .145 1.016 1.327 1.327 0 0 1-.646.83L3.397 18.087a1.242 1.242 0 0 0-.646.8 1.32 1.32 0 0 0 .145 1.041l9.7 16.8a1.4 1.4 0 0 0 .343.409 1.07 1.07 0 0 0 .475.224 1.2 1.2 0 0 0 .527.04 1.462 1.462 0 0 0 .5-.172l2.953-1.713-7.013-7.014a3.991 3.991 0 0 1-.884-1.319 4.111 4.111 0 0 1 0-3.1 3.688 3.688 0 0 1 .884-1.3L30.872 2.287a8.789 8.789 0 0 1 5.563-2.293h9.44zm1.345 13.5V4.03a1.352 1.352 0 0 0-1.345-1.344h-9.44a5.177 5.177 0 0 0-1.951.462 5.576 5.576 0 0 0-1.709 1.039L12.283 24.674a1.343 1.343 0 0 0-.29.435 1.325 1.325 0 0 0-.105.515 1.283 1.283 0 0 0 .105.526 1.747 1.747 0 0 0 .29.449l11.048 11.022a1.406 1.406 0 0 0 .422.29 1.285 1.285 0 0 0 .527.105 1.317 1.317 0 0 0 .514-.105 1.359 1.359 0 0 0 .435-.29l20.488-20.488a5.19 5.19 0 0 0 1.041-1.7 5.258 5.258 0 0 0 .462-1.938z" fill="#ccc" fill-rule="evenodd"/></svg>