<svg xmlns="http://www.w3.org/2000/svg" width="47.5" height="47.5"><path d="M46.24 9.99a1.258 1.258 0 0 1 1.27 1.27v7.49a1.179 1.179 0 0 1-.367.88 1.208 1.208 0 0 1-.9.37H45v23.75a3.754 3.754 0 0 1-3.735 3.74H6.25a3.633 3.633 0 0 1-2.661-1.1 3.59 3.59 0 0 1-1.1-2.64V20H1.244a1.257 1.257 0 0 1-1.245-1.25v-7.49a1.211 1.211 0 0 1 .366-.9 1.18 1.18 0 0 1 .879-.37h7.519a6 6 0 0 1-.939-1.73 6.291 6.291 0 0 1 .158-4.44A6.28 6.28 0 0 1 11.315.49 6.178 6.178 0 0 1 13.744 0a6.785 6.785 0 0 1 2.5.46 10.651 10.651 0 0 1 2.184 1.12 13.213 13.213 0 0 1 1.795 1.44q.793.765 1.331 1.38a16.587 16.587 0 0 1 1.208 1.52q.549.8.989 1.56a15.576 15.576 0 0 1 .976-1.56c.375-.52.773-1.03 1.2-1.52q.536-.615 1.342-1.38a13.928 13.928 0 0 1 1.807-1.44A10.633 10.633 0 0 1 31.261.46 6.712 6.712 0 0 1 33.739 0a6.266 6.266 0 0 1 2.441.49 6.352 6.352 0 0 1 1.99 1.34 6.627 6.627 0 0 1 1.331 1.99 6.291 6.291 0 0 1 .158 4.44 6.312 6.312 0 0 1-.915 1.73h7.5zM27.808 6.03a16.162 16.162 0 0 0-1.539 2.09 11.738 11.738 0 0 0-.952 1.87h8.423a3.633 3.633 0 0 0 2.661-1.1 3.744 3.744 0 0 0 0-5.3 3.633 3.633 0 0 0-2.661-1.1 5.747 5.747 0 0 0-2.905.93 12.671 12.671 0 0 0-3.027 2.61zM27.49 45V12.5H20V45h7.5zM10.01 6.25a3.752 3.752 0 0 0 3.735 3.74h8.447a11.181 11.181 0 0 0-.964-1.87 17.4 17.4 0 0 0-1.55-2.09 12.808 12.808 0 0 0-3.016-2.61 5.717 5.717 0 0 0-2.917-.93 3.752 3.752 0 0 0-3.735 3.76zM2.49 12.5v5.01h15.015V12.5H2.49zm2.515 31.25A1.257 1.257 0 0 0 6.25 45h11.255V20h-12.5v23.75zm37.5 0V20h-12.5v25H41.26a1.257 1.257 0 0 0 1.245-1.25zm2.49-26.24V12.5h-14.99v5.01H45z" fill="#ccc" fill-rule="evenodd"/></svg>