<svg xmlns="http://www.w3.org/2000/svg" width="47.5" height="42.5"><path d="M1.245 42.5a13.069 13.069 0 0 0 2.051-.171 17.8 17.8 0 0 0 2.27-.524q1.2-.356 2.491-.88t2.685-1.209q1.782-.9 3.223-1.769t2.246-1.4a30.69 30.69 0 0 0 3.7.708 30.416 30.416 0 0 0 8.472-.11 28.216 28.216 0 0 0 4.395-1.038 26.212 26.212 0 0 0 4.04-1.685 23.018 23.018 0 0 0 3.614-2.319 19.137 19.137 0 0 0 1.562-1.33q.732-.7 1.379-1.441a17.691 17.691 0 0 0 1.2-1.537q.549-.793 1.013-1.625a16.117 16.117 0 0 0 1.44-3.625 14.932 14.932 0 0 0 0-7.58 16.217 16.217 0 0 0-1.44-3.613 17.959 17.959 0 0 0-1.013-1.648 17.7 17.7 0 0 0-1.2-1.538q-.646-.745-1.379-1.44a18.951 18.951 0 0 0-1.562-1.331 24.992 24.992 0 0 0-3.614-2.307 25.551 25.551 0 0 0-4.052-1.7A28.916 28.916 0 0 0 28.371.35a30.409 30.409 0 0 0-9.253 0 28.473 28.473 0 0 0-4.382 1.038 26.2 26.2 0 0 0-4.053 1.7 23.569 23.569 0 0 0-3.6 2.307 20.593 20.593 0 0 0-1.575 1.331 17.552 17.552 0 0 0-1.379 1.44q-.636.744-1.2 1.538a13.658 13.658 0 0 0-1 1.648 16.268 16.268 0 0 0-1.441 3.613A14.778 14.778 0 0 0 0 18.749a15.081 15.081 0 0 0 .476 3.76 15.734 15.734 0 0 0 1.4 3.577 18.149 18.149 0 0 0 2.27 3.271 20.873 20.873 0 0 0 3.052 2.868 14.265 14.265 0 0 1-.684 1.624 13.317 13.317 0 0 1-1.257 2.052 18.534 18.534 0 0 1-1.929 2.209 14.379 14.379 0 0 1-2.722 2.075 1.244 1.244 0 0 0-.525.61 1.288 1.288 0 0 0 .4 1.453 1.231 1.231 0 0 0 .757.256zm22.51-39.99a26.363 26.363 0 0 1 8.264 1.269 22.559 22.559 0 0 1 6.75 3.479 17.053 17.053 0 0 1 4.554 5.177 12.767 12.767 0 0 1 0 12.633 17.1 17.1 0 0 1-4.554 5.164 22.721 22.721 0 0 1-6.75 3.492 26.136 26.136 0 0 1-8.264 1.28 27.432 27.432 0 0 1-3.784-.256 25.863 25.863 0 0 1-3.638-.768 1.336 1.336 0 0 0-.549-.036 1.014 1.014 0 0 0-.5.206q-.977.66-2.1 1.355t-2.331 1.344q-1.209.645-2.454 1.208t-2.465 1a16.938 16.938 0 0 0 1.7-2.173 20.957 20.957 0 0 0 1.16-2 14.438 14.438 0 0 0 .72-1.66q.256-.732.379-1.148a1.242 1.242 0 0 0-.037-.744 1.183 1.183 0 0 0-.452-.6 17.936 17.936 0 0 1-2.942-2.527 15.825 15.825 0 0 1-2.16-2.918 14.1 14.1 0 0 1-1.343-3.185 12.347 12.347 0 0 1-.464-3.358 12.645 12.645 0 0 1 1.672-6.31 16.988 16.988 0 0 1 4.566-5.177 22.73 22.73 0 0 1 6.763-3.479 26.354 26.354 0 0 1 8.264-1.269zm0 22.485A1.248 1.248 0 0 0 25 23.749v-3.882a6.1 6.1 0 0 0 1.99-.781 6.444 6.444 0 0 0 1.587-1.367 6.223 6.223 0 0 0 1.049-1.819 6.131 6.131 0 0 0 .379-2.161 6.068 6.068 0 0 0-.489-2.428 6.167 6.167 0 0 0-1.342-1.979 6.617 6.617 0 0 0-1.99-1.343 6.161 6.161 0 0 0-4.858 0 6.6 6.6 0 0 0-1.99 1.343 6.154 6.154 0 0 0-1.343 1.979 6.067 6.067 0 0 0-.488 2.428 1.228 1.228 0 0 0 .366.9 1.239 1.239 0 0 0 1.758 0 1.228 1.228 0 0 0 .366-.9 3.746 3.746 0 1 1 3.76 3.76 1.25 1.25 0 0 0-1.245 1.245v5a1.248 1.248 0 0 0 1.245 1.245zm0 5a1.222 1.222 0 0 0 .476-.1 1.268 1.268 0 0 0 .4-.268 1.247 1.247 0 0 0 .268-.4 1.205 1.205 0 0 0 0-.952 1.268 1.268 0 0 0-.268-.4.976.976 0 0 0-.4-.28 1.346 1.346 0 0 0-.952 0 1.392 1.392 0 0 0-.684.683 1.375 1.375 0 0 0 0 .952.965.965 0 0 0 .281.4 1.257 1.257 0 0 0 .4.268 1.215 1.215 0 0 0 .476.1z" fill="#ccc" fill-rule="evenodd"/></svg>