<svg xmlns="http://www.w3.org/2000/svg" width="40.5" height="48.594"><path d="M39.945 38.074a1.217 1.217 0 0 1 .488.67 1.408 1.408 0 0 1-.013.83 1.229 1.229 0 0 1-.488.67 1.3 1.3 0 0 1-.778.25H26.867q.052.33.093.66a6.138 6.138 0 0 1 .039.69 6.541 6.541 0 0 1-.527 2.62 6.8 6.8 0 0 1-3.6 3.6 6.758 6.758 0 0 1-5.247 0 6.8 6.8 0 0 1-3.6-3.6 6.525 6.525 0 0 1-.528-2.62q0-.345.027-.69a4.194 4.194 0 0 1 .105-.66H1.344a1.284 1.284 0 0 1-.791-.25 1.4 1.4 0 0 1-.5-.67 1.362 1.362 0 0 1 .474-1.5 12.168 12.168 0 0 0 2.07-1.97 11.723 11.723 0 0 0 1.53-2.33 12.412 12.412 0 0 0 .949-2.61 12.011 12.011 0 0 0 .329-2.82v-8.1a14.552 14.552 0 0 1 .805-4.85 14.908 14.908 0 0 1 2.254-4.18 15.261 15.261 0 0 1 3.428-3.24 14.73 14.73 0 0 1 4.3-2.02v-1.92a4.047 4.047 0 0 1 8.094 0v1.92a14.679 14.679 0 0 1 4.325 2.02 15.027 15.027 0 0 1 3.414 3.24 15.382 15.382 0 0 1 2.254 4.18 14.359 14.359 0 0 1 .818 4.85v8.1a11.958 11.958 0 0 0 .329 2.82 12.3 12.3 0 0 0 .95 2.61 11.971 11.971 0 0 0 1.516 2.33 11.79 11.79 0 0 0 2.056 1.97zM18.904 4.034v1.42c.211-.01.431-.03.66-.04s.456-.01.685-.01.453 0 .673.01.443.03.672.04v-1.42a1.288 1.288 0 0 0-.4-.95 1.326 1.326 0 0 0-1.9 0 1.288 1.288 0 0 0-.4.95zm5.379 37.81a4.579 4.579 0 0 0-.052-.69 4.654 4.654 0 0 0-.159-.66h-7.646a5.721 5.721 0 0 0-.171.66 3.665 3.665 0 0 0-.066.69 4.047 4.047 0 1 0 8.094 0zm-19.59-4.06h31.086q-.5-.615-.949-1.29c-.3-.46-.571-.93-.817-1.4a14.313 14.313 0 0 1-1.213-3.27 15.246 15.246 0 0 1-.4-3.48v-8.1a11.72 11.72 0 0 0-.962-4.72 12.48 12.48 0 0 0-2.61-3.86 12.344 12.344 0 0 0-3.863-2.61 12.083 12.083 0 0 0-9.44 0 12.328 12.328 0 0 0-3.862 2.61 12.466 12.466 0 0 0-2.611 3.86 11.72 11.72 0 0 0-.962 4.72v8.1a14.766 14.766 0 0 1-.409 3.48 15.544 15.544 0 0 1-1.2 3.27c-.246.47-.518.94-.817 1.4a13.3 13.3 0 0 1-.975 1.29z" fill="#ccc" fill-rule="evenodd"/></svg>