<svg xmlns="http://www.w3.org/2000/svg" width="64" height="41.6"><path d="M63.34 20.6a29.265 29.265 0 0 1 .47 3.3c.13 1.3.19 2.4.19 3.3v6.4a4.612 4.612 0 0 1-1.41 3.4 4.762 4.762 0 0 1-3.4 1.4h-2.44a6.218 6.218 0 0 1-2.31 2.3 6.12 6.12 0 0 1-3.25.9 6.042 6.042 0 0 1-3.22-.9 6.218 6.218 0 0 1-2.31-2.3h-2.47a4.635 4.635 0 0 1-2.8-.9 4.743 4.743 0 0 1-1.7-2.3H22.41a6.377 6.377 0 0 1-.5 2.5 5.412 5.412 0 0 1-1.38 2 5.678 5.678 0 0 1-2.05 1.4 6.4 6.4 0 0 1-4.96 0 5.678 5.678 0 0 1-2.05-1.4 5.412 5.412 0 0 1-1.38-2 6.377 6.377 0 0 1-.5-2.5H4.81a4.762 4.762 0 0 1-3.4-1.4A4.612 4.612 0 0 1 0 30.4V4.8a4.612 4.612 0 0 1 1.41-3.4A4.762 4.762 0 0 1 4.81 0h32a4.767 4.767 0 0 1 3.38 1.4 4.642 4.642 0 0 1 1.4 3.4v1.9a2.141 2.141 0 0 1 .78-.2 2.337 2.337 0 0 1 .82-.1H56a5.127 5.127 0 0 1 3.47 1.3 5.219 5.219 0 0 1 1.94 3.1l.62 3.3h.03l1.25 6.4.03.1zm-3.53-1.4l-.65-3.2h-7.97v3.2h8.62zM16 38.4a3.15 3.15 0 0 0 2.25-.9 3.284 3.284 0 0 0 0-4.6A3.15 3.15 0 0 0 16 32a3.117 3.117 0 0 0-2.25.9 3.284 3.284 0 0 0 0 4.6 3.117 3.117 0 0 0 2.25.9zm5.53-6.4h16.88V4.8a1.531 1.531 0 0 0-.47-1.1 1.637 1.637 0 0 0-1.13-.5h-32a1.628 1.628 0 0 0-1.15.5 1.492 1.492 0 0 0-.47 1.1v25.6a1.492 1.492 0 0 0 .47 1.1 1.628 1.628 0 0 0 1.15.5h5.66a6 6 0 0 1 2.28-2.3 6.318 6.318 0 0 1 6.5 0 6 6 0 0 1 2.28 2.3zm29.66 6.4a3.187 3.187 0 0 0 2.28-.9 3.284 3.284 0 0 0 0-4.6 3.187 3.187 0 0 0-2.28-.9 3.117 3.117 0 0 0-2.25.9 3.284 3.284 0 0 0 0 4.6 3.117 3.117 0 0 0 2.25.9zm8-3.2a1.308 1.308 0 0 0 1.15-.5 1.492 1.492 0 0 0 .47-1.1v-4.8h-1.62a1.618 1.618 0 0 1-1.13-.5 1.522 1.522 0 0 1 0-2.2 1.294 1.294 0 0 1 1.13-.5h1.56c-.04-.5-.09-1.1-.14-1.6-.05-.6-.12-1.1-.2-1.6H49.59a1.614 1.614 0 0 1-1.12-.5 1.531 1.531 0 0 1-.47-1.1v-6.4a1.531 1.531 0 0 1 .47-1.1 1.614 1.614 0 0 1 1.12-.5h8.94l-.28-1.3a2.367 2.367 0 0 0-.81-1.4A2.665 2.665 0 0 0 56 9.6H43.19a1.294 1.294 0 0 0-1.13.5 1.531 1.531 0 0 0-.47 1.1v22.4a1.531 1.531 0 0 0 .47 1.1 1.294 1.294 0 0 0 1.13.5h1.62a6.377 6.377 0 0 1 .5-2.5 6.5 6.5 0 0 1 1.36-2 5.6 5.6 0 0 1 2.03-1.4 6.475 6.475 0 0 1 4.99 0 5.779 5.779 0 0 1 2.03 1.4 6.21 6.21 0 0 1 1.87 4.5h1.6z" fill="#ccc" fill-rule="evenodd"/></svg>