<svg xmlns="http://www.w3.org/2000/svg" width="57" height="45"><path d="M55.49 45a1.4 1.4 0 0 0 1.08-.4 1.541 1.541 0 0 0 .44-1.1v-30a1.541 1.541 0 0 0-.44-1.1 1.4 1.4 0 0 0-1.08-.4h-54a1.363 1.363 0 0 0-1.05.4A1.584 1.584 0 0 0 0 13.5v30a1.584 1.584 0 0 0 .44 1.1 1.363 1.363 0 0 0 1.05.4h54zm-52.5-3V15h51v27h-51zM52.5 9a1.363 1.363 0 0 0 1.05-.4 1.595 1.595 0 0 0 0-2.2A1.363 1.363 0 0 0 52.5 6H4.51a1.4 1.4 0 0 0-1.08.4 1.6 1.6 0 0 0 0 2.2 1.4 1.4 0 0 0 1.08.4H52.5zm-2.99-6a1.4 1.4 0 0 0 1.06-.4 1.584 1.584 0 0 0 .44-1.1 1.213 1.213 0 0 0-.44-1 1.5 1.5 0 0 0-1.06-.5H7.5a1.458 1.458 0 0 0-1.05.5 1.185 1.185 0 0 0-.44 1 1.541 1.541 0 0 0 .44 1.1A1.363 1.363 0 0 0 7.5 3h42.01zm-15 27H30v3h4.51a1.4 1.4 0 0 1 1.06.4 1.584 1.584 0 0 1 .44 1.1 1.213 1.213 0 0 1-.44 1 1.5 1.5 0 0 1-1.06.5H30v1.5a1.584 1.584 0 0 1-.44 1.1 1.363 1.363 0 0 1-1.05.4 1.385 1.385 0 0 1-1.06-.4 1.584 1.584 0 0 1-.44-1.1V36H22.5a1.458 1.458 0 0 1-1.05-.5 1.185 1.185 0 0 1-.44-1 1.541 1.541 0 0 1 .44-1.1 1.363 1.363 0 0 1 1.05-.4h4.51v-3H22.5a1.363 1.363 0 0 1-1.05-.4 1.6 1.6 0 0 1 0-2.2 1.363 1.363 0 0 1 1.05-.4h3.19l-4.45-6.7a1.389 1.389 0 0 1-.2-1.1 1.246 1.246 0 0 1 .64-.9 1.478 1.478 0 0 1 1.11-.3 1.433 1.433 0 0 1 .97.7l4.75 7.1 4.74-7.1a1.442 1.442 0 0 1 .95-.7 1.561 1.561 0 0 1 1.13.3 1.286 1.286 0 0 1 .65.9 1.364 1.364 0 0 1-.24 1.1L31.29 27h3.22a1.4 1.4 0 0 1 1.06.4 1.595 1.595 0 0 1 0 2.2 1.4 1.4 0 0 1-1.06.4z" fill="#ccc" fill-rule="evenodd"/></svg>