<svg xmlns="http://www.w3.org/2000/svg" width="39" height="39"><path d="M21.61 19.5l16.96 16.9a1.595 1.595 0 0 1 0 2.2c-.15.1-.33.2-.51.3a1.151 1.151 0 0 1-.57.1 1.04 1.04 0 0 1-.54-.1c-.19-.1-.36-.2-.52-.3l-16.93-17-16.93 17c-.16.1-.33.2-.52.3a1.04 1.04 0 0 1-.54.1 1.151 1.151 0 0 1-.57-.1 5.747 5.747 0 0 1-.51-.3 1.6 1.6 0 0 1 0-2.2l16.96-16.9L.43 2.5a1.185 1.185 0 0 1-.44-1A1.541 1.541 0 0 1 .43.4a1.631 1.631 0 0 1 2.14 0l16.93 17L36.43.4a1.631 1.631 0 0 1 2.14 0 1.541 1.541 0 0 1 .44 1.1 1.185 1.185 0 0 1-.44 1l-16.96 17z" fill="#ccc" fill-rule="evenodd"/></svg>