<svg xmlns="http://www.w3.org/2000/svg" width="44" height="39.6"><path d="M43.63.3a.888.888 0 0 1 .33.5 1.219 1.219 0 0 1 0 .6l-11 37.4a1.022 1.022 0 0 1-.29.5 4.206 4.206 0 0 1-.49.3h-.28a.615.615 0 0 1-.41-.1.549.549 0 0 1-.36-.2l-9.9-9.8-6.08 7.5a2.518 2.518 0 0 1-.38.3.758.758 0 0 1-.46.1h-.19a.207.207 0 0 1-.2-.1.728.728 0 0 1-.52-.4 1.041 1.041 0 0 1-.21-.6V23.9L.75 19.7a.972.972 0 0 1-.52-.3 1.2 1.2 0 0 1-.23-.7.986.986 0 0 1 .17-.6 1.145 1.145 0 0 1 .5-.4L42.47.1a1.329 1.329 0 0 1 .62-.1.674.674 0 0 1 .54.3zm-8.14 5.1L4.21 18.6l9.88 3.3 21.4-16.5zM15.4 23.6v9.6l4.88-6L36.12 7.7 15.4 23.6zm15.97 12.8L40.3 6 22.62 27.8l8.75 8.6z" fill="#fff" fill-rule="evenodd"/></svg>