<svg xmlns="http://www.w3.org/2000/svg" width="57" height="57"><path d="M55.49 12a1.4 1.4 0 0 1 1.08.4 1.541 1.541 0 0 1 .44 1.1v9a1.541 1.541 0 0 1-.44 1.1 1.4 1.4 0 0 1-1.08.4h-1.5v28.5a4.509 4.509 0 0 1-1.31 3.2 4.646 4.646 0 0 1-3.17 1.3H7.5a4.657 4.657 0 0 1-3.19-1.3 4.478 4.478 0 0 1-1.32-3.2V24h-1.5a1.363 1.363 0 0 1-1.05-.4A1.584 1.584 0 0 1 0 22.5v-9a1.584 1.584 0 0 1 .44-1.1 1.363 1.363 0 0 1 1.05-.4h9.03a6.429 6.429 0 0 1-1.13-2.1 7.741 7.741 0 0 1-.4-2.4 7.335 7.335 0 0 1 .59-2.9 7.97 7.97 0 0 1 1.61-2.4A7.38 7.38 0 0 1 13.58.6a7.151 7.151 0 0 1 2.91-.6 9.941 9.941 0 0 1 3.01.5 19.1 19.1 0 0 1 2.62 1.4 13.648 13.648 0 0 1 2.15 1.7 21.44 21.44 0 0 1 1.6 1.7c.53.6 1.01 1.2 1.45 1.8s.83 1.3 1.19 1.9a16.254 16.254 0 0 1 1.17-1.9c.45-.6.92-1.2 1.43-1.8a21.74 21.74 0 0 1 1.61-1.7 14.822 14.822 0 0 1 2.17-1.7A19.1 19.1 0 0 1 37.51.5a9.851 9.851 0 0 1 2.98-.5 7.609 7.609 0 0 1 5.32 2.2 8.1 8.1 0 0 1 1.59 2.4 7.335 7.335 0 0 1 .59 2.9 7.458 7.458 0 0 1-.4 2.4 6.767 6.767 0 0 1-1.1 2.1h9zM33.37 7.2a29.441 29.441 0 0 0-1.85 2.5 16.158 16.158 0 0 0-1.14 2.3h10.11a4.657 4.657 0 0 0 3.19-1.3 4.539 4.539 0 0 0 0-6.4A4.247 4.247 0 0 0 40.49 3 7.314 7.314 0 0 0 37 4.1a15 15 0 0 0-3.63 3.1zM32.99 54V15h-9v39h9zM12.01 7.5a4.478 4.478 0 0 0 1.32 3.2 4.622 4.622 0 0 0 3.16 1.3h10.14a14.564 14.564 0 0 0-1.16-2.3 27.657 27.657 0 0 0-1.86-2.5A15.122 15.122 0 0 0 20 4.1 7.319 7.319 0 0 0 16.49 3a4.212 4.212 0 0 0-3.16 1.3 4.478 4.478 0 0 0-1.32 3.2zM2.99 15v6h18.02v-6H2.99zm3.02 37.5a1.541 1.541 0 0 0 .44 1.1 1.363 1.363 0 0 0 1.05.4h13.51V24h-15v28.5zm45 0V24h-15v30h13.5a1.4 1.4 0 0 0 1.06-.4 1.584 1.584 0 0 0 .44-1.1zM53.99 21v-6H36.01v6h17.98z" fill="#ccc" fill-rule="evenodd"/></svg>