<svg xmlns="http://www.w3.org/2000/svg" width="39.1" height="41.375"><path d="M16.12 41.384a4.471 4.471 0 0 0 1.79-.359 4.7 4.7 0 0 0 1.46-.978 4.6 4.6 0 0 0 .99-5.042 4.653 4.653 0 0 0-.99-1.459 4.6 4.6 0 0 0-1.46-.989 4.437 4.437 0 0 0-1.79-.359 4.545 4.545 0 0 0-3.25 1.348 5.016 5.016 0 0 0-.99 1.459 4.522 4.522 0 0 0 0 3.583 4.823 4.823 0 0 0 .99 1.459 4.589 4.589 0 0 0 1.46.978 4.542 4.542 0 0 0 1.79.359zm0-6.9a2.241 2.241 0 0 1 1.64.674 2.266 2.266 0 0 1 .67 1.64 2.291 2.291 0 0 1-2.31 2.29 2.308 2.308 0 0 1-2.3-2.29 2.236 2.236 0 0 1 .68-1.64 2.212 2.212 0 0 1 1.62-.674zm16.1 6.9a4.578 4.578 0 0 0 1.79-.359 4.748 4.748 0 0 0 1.47-.978 4.488 4.488 0 0 0 .99-1.459 4.609 4.609 0 0 0-2.46-6.031 4.642 4.642 0 0 0-3.58 0 4.639 4.639 0 0 0-2.46 6.031 4.488 4.488 0 0 0 .99 1.459 4.748 4.748 0 0 0 1.47.978 4.578 4.578 0 0 0 1.79.359zm0-6.9a2.294 2.294 0 1 1-1.62.674 2.212 2.212 0 0 1 1.62-.674zm5.97-29.872a1.066 1.066 0 0 1 .73.482 1.1 1.1 0 0 1 .17.865l-1.84 9.254a4.129 4.129 0 0 1-1.36 2.28 4.049 4.049 0 0 1-2.41 1.089l-23.29 2 .94 5.705a1.667 1.667 0 0 0 1.55 1.3h23a1.146 1.146 0 0 1 0 2.291h-23a3.946 3.946 0 0 1-3.82-3.212L5.02 3.598a1.668 1.668 0 0 0-1.55-1.3H1.18a1.121 1.121 0 0 1-.83-.337 1.109 1.109 0 0 1-.34-.831A1.086 1.086 0 0 1 .35.321a1.121 1.121 0 0 1 .83-.337h2.29A3.991 3.991 0 0 1 7.29 3.22L9.8 18.313l23.48-2.022a1.845 1.845 0 0 0 1.08-.516 1.722 1.722 0 0 0 .62-1.011l1.87-9.254a1.084 1.084 0 0 1 .48-.73 1.123 1.123 0 0 1 .86-.168z" fill="#fff" fill-rule="evenodd"/></svg>