<svg xmlns="http://www.w3.org/2000/svg" width="43.72" height="39.094"><path d="M1.15 39.094a12.135 12.135 0 0 0 1.88-.157 16.27 16.27 0 0 0 2.09-.484 24.281 24.281 0 0 0 2.29-.808c.8-.321 1.62-.692 2.47-1.112 1.1-.554 2.08-1.1 2.97-1.628s1.57-.961 2.06-1.292a28.128 28.128 0 0 0 3.41.652 27.909 27.909 0 0 0 7.79-.1 25.816 25.816 0 0 0 4.04-.956 23.878 23.878 0 0 0 3.72-1.549 21.721 21.721 0 0 0 3.33-2.134 18.843 18.843 0 0 0 2.7-2.549 14.534 14.534 0 0 0 1.1-1.414 16.511 16.511 0 0 0 .93-1.494 14.649 14.649 0 0 0 1.33-3.336 13.735 13.735 0 0 0 0-6.974 14.727 14.727 0 0 0-1.33-3.324A14.971 14.971 0 0 0 41 8.919a14.546 14.546 0 0 0-1.1-1.415c-.4-.457-.82-.9-1.27-1.325s-.93-.834-1.43-1.225a23.634 23.634 0 0 0-3.33-2.122 23 23 0 0 0-3.73-1.561A26.477 26.477 0 0 0 26.1.316a28.016 28.016 0 0 0-8.51 0 25.8 25.8 0 0 0-4.03.955 23.766 23.766 0 0 0-3.73 1.561 21.926 21.926 0 0 0-3.32 2.122c-.51.391-.99.8-1.45 1.225A15.471 15.471 0 0 0 3.8 7.504c-.39.457-.76.928-1.1 1.415a12.061 12.061 0 0 0-.93 1.516 15.171 15.171 0 0 0-1.32 3.324A13.608 13.608 0 0 0 0 17.24a13.961 13.961 0 0 0 .44 3.46 14.36 14.36 0 0 0 1.29 3.29A16.384 16.384 0 0 0 3.82 27a19.027 19.027 0 0 0 2.81 2.639A15.394 15.394 0 0 1 6 31.133a12.453 12.453 0 0 1-1.16 1.886 17.843 17.843 0 0 1-1.77 2.034 13.488 13.488 0 0 1-2.51 1.908 1.174 1.174 0 0 0-.48.561 1.158 1.158 0 0 0 .37 1.337 1.135 1.135 0 0 0 .7.236zm20.7-36.792a24.313 24.313 0 0 1 7.61 1.169 20.807 20.807 0 0 1 6.21 3.2 15.838 15.838 0 0 1 4.19 4.762 11.735 11.735 0 0 1 0 11.623 15.892 15.892 0 0 1-4.19 4.75 20.992 20.992 0 0 1-6.21 3.213 24.114 24.114 0 0 1-7.61 1.178 25.479 25.479 0 0 1-3.48-.235 23.73 23.73 0 0 1-3.34-.708 1.315 1.315 0 0 0-.51-.034.946.946 0 0 0-.46.192c-.6.4-1.24.818-1.93 1.247s-1.41.838-2.15 1.234-1.49.769-2.25 1.112-1.52.651-2.27.921a16.157 16.157 0 0 0 1.56-2 19.644 19.644 0 0 0 1.07-1.842 14.6 14.6 0 0 0 .66-1.528c.16-.449.27-.8.35-1.055a1.148 1.148 0 0 0-.04-.684 1.1 1.1 0 0 0-.41-.551 16.5 16.5 0 0 1-2.71-2.325 14.4 14.4 0 0 1-1.99-2.684 12.744 12.744 0 0 1-1.23-2.931 11.135 11.135 0 0 1-.43-3.089 11.593 11.593 0 0 1 1.54-5.805 15.6 15.6 0 0 1 4.2-4.762 20.864 20.864 0 0 1 6.22-3.2 24.25 24.25 0 0 1 7.6-1.169z" fill="#fff" fill-rule="evenodd"/></svg>