<svg xmlns="http://www.w3.org/2000/svg" width="80" height="80"><circle data-name="楕円形 3" cx="40" cy="40" r="40"/><path data-name="シェイプ 780" d="M41 22a18 18 0 0 0 0 36 17.637 17.637 0 0 0 5.59-.9l1.07-.4a.7.7 0 0 0 .47-.9l-1.03-3.1a.739.739 0 0 0-.91-.5l-1.08.4a14.193 14.193 0 0 1-4.11.6A13.2 13.2 0 1 1 54.22 40a13.554 13.554 0 0 1-.83 4.6 2.825 2.825 0 0 1-2.09 2.1 1.82 1.82 0 0 1-1.84-1.8V32.2a.789.789 0 0 0-.72-.8H45.4a.717.717 0 0 0-.71.7l-.02.3-.25-.1a8.675 8.675 0 0 0-4.16-1.1 8.8 8.8 0 0 0 0 17.6 8.733 8.733 0 0 0 4.7-1.4l.18-.1.08.2a6.673 6.673 0 0 0 6.08 4c2.84 0 5.49-2.1 6.6-5.3A18.964 18.964 0 0 0 59 40a18.034 18.034 0 0 0-18-18zm3.62 18a4.345 4.345 0 1 1-4.35-4.3 4.311 4.311 0 0 1 4.35 4.3z" fill="#fff" fill-rule="evenodd"/></svg>