<svg xmlns="http://www.w3.org/2000/svg" width="37.4" height="41.8"><path d="M34.12 0a3.007 3.007 0 0 1 2.32 1 3.073 3.073 0 0 1 .97 2.3v35.2a3.073 3.073 0 0 1-.97 2.3 3.007 3.007 0 0 1-2.32 1H5.5a3.007 3.007 0 0 1-2.32-1 3.073 3.073 0 0 1-.97-2.3v-3.3H1.12a1.135 1.135 0 0 1-.8-.3 1.16 1.16 0 0 1 0-1.6 1.135 1.135 0 0 1 .8-.3h1.09v-2.2H1.12a1.135 1.135 0 0 1-.8-.3 1.16 1.16 0 0 1 0-1.6 1.135 1.135 0 0 1 .8-.3h1.09v-2.2H1.12a1.135 1.135 0 0 1-.8-.3 1.16 1.16 0 0 1 0-1.6 1.135 1.135 0 0 1 .8-.3h1.09V22H1.12a1.135 1.135 0 0 1-.8-.3 1.16 1.16 0 0 1 0-1.6 1.135 1.135 0 0 1 .8-.3h1.09v-2.2H1.12a1.135 1.135 0 0 1-.8-.3 1.16 1.16 0 0 1 0-1.6 1.135 1.135 0 0 1 .8-.3h1.09v-2.2H1.12a1.135 1.135 0 0 1-.8-.3 1.16 1.16 0 0 1 0-1.6 1.135 1.135 0 0 1 .8-.3h1.09V8.8H1.12a1.135 1.135 0 0 1-.8-.3 1.16 1.16 0 0 1 0-1.6 1.135 1.135 0 0 1 .8-.3h1.09V3.3A3.073 3.073 0 0 1 3.18 1 3.007 3.007 0 0 1 5.5 0h28.62zm1.09 38.5V3.3a1.06 1.06 0 0 0-1.09-1.1H5.5a1.06 1.06 0 0 0-1.09 1.1v3.3h3.3a1.121 1.121 0 0 1 .78.3 1.16 1.16 0 0 1 0 1.6 1.121 1.121 0 0 1-.78.3h-3.3V11h3.3a1.121 1.121 0 0 1 .78.3 1.16 1.16 0 0 1 0 1.6 1.121 1.121 0 0 1-.78.3h-3.3v2.2h3.3a1.121 1.121 0 0 1 .78.3 1.16 1.16 0 0 1 0 1.6 1.121 1.121 0 0 1-.78.3h-3.3v2.2h3.3a1.121 1.121 0 0 1 .78.3 1.16 1.16 0 0 1 0 1.6 1.121 1.121 0 0 1-.78.3h-3.3v2.2h3.3a1.121 1.121 0 0 1 .78.3 1.16 1.16 0 0 1 0 1.6 1.121 1.121 0 0 1-.78.3h-3.3v2.2h3.3a1.121 1.121 0 0 1 .78.3 1.16 1.16 0 0 1 0 1.6 1.121 1.121 0 0 1-.78.3h-3.3V33h3.3a1.121 1.121 0 0 1 .78.3 1.16 1.16 0 0 1 0 1.6 1.121 1.121 0 0 1-.78.3h-3.3v3.3a1.06 1.06 0 0 0 1.09 1.1h28.62a1.06 1.06 0 0 0 1.09-1.1zm-12.95-7.4h2.63c.84 0 1.59-.1 2.25-.1 1.1 0 1.83-.1 2.2-.1a3.122 3.122 0 0 0 .74-.2 1.552 1.552 0 0 0 1.03-1 2.857 2.857 0 0 0 .15-1.7 5.843 5.843 0 0 0-.86-2.1 8.605 8.605 0 0 0-1.7-1.9 7.3 7.3 0 0 0-1.38-.8 8.717 8.717 0 0 0-1.59-.7 10.242 10.242 0 0 0-1.78-.4 12.293 12.293 0 0 0-1.93-.1H22a16.035 16.035 0 0 0-2.31.2 9.71 9.71 0 0 0-1.88.5 15.558 15.558 0 0 0-1.46.6 9.023 9.023 0 0 0-1.07.8 6.729 6.729 0 0 0-1.69 1.8 5.456 5.456 0 0 0-.85 2.2 3.022 3.022 0 0 0 .18 1.7 1.453 1.453 0 0 0 1.05.9 3.678 3.678 0 0 0 1.37.2 16.511 16.511 0 0 0 2.3.1 21.49 21.49 0 0 0 2.54.1h2.08zm-7.37-2.4a2.384 2.384 0 0 1 .13-.7 3.934 3.934 0 0 1 .51-1 3.977 3.977 0 0 1 .75-.9 7.1 7.1 0 0 1 1.25-.9 7.869 7.869 0 0 1 1.88-.7 9.964 9.964 0 0 1 2.59-.3h.02a9.965 9.965 0 0 1 2.61.3 7.709 7.709 0 0 1 1.88.7 6.747 6.747 0 0 1 1.25.9 4.124 4.124 0 0 1 .73.9 3.306 3.306 0 0 1 .5 1 2.688 2.688 0 0 1 .12.7c-.37 0-1.11.1-2.23.1-1.12.1-2.66.1-4.62.1h-2.57c-.79 0-1.51-.1-2.14-.1h-1.62a4.483 4.483 0 0 0-1.04-.1zM22 19.8a3.384 3.384 0 0 0 1.72-.4 3.916 3.916 0 0 0 1.4-.9 3.8 3.8 0 0 0 .94-1.4 4.3 4.3 0 0 0 0-3.4 4.851 4.851 0 0 0-.94-1.4 6.314 6.314 0 0 0-1.4-1A4.819 4.819 0 0 0 22 11a4.884 4.884 0 0 0-1.71.3 6.026 6.026 0 0 0-1.39 1 4.851 4.851 0 0 0-.94 1.4 4.42 4.42 0 0 0 0 3.4 4.156 4.156 0 0 0 2.33 2.3 3.419 3.419 0 0 0 1.71.4zm0-6.6a2.215 2.215 0 0 1 1.57.6 2.32 2.32 0 0 1 0 3.2 2.328 2.328 0 0 1-3.12 0 2.32 2.32 0 0 1 0-3.2 2.2 2.2 0 0 1 1.55-.6z" fill="#fff" fill-rule="evenodd"/></svg>