<svg xmlns="http://www.w3.org/2000/svg" width="39" height="51"><path d="M34.51 18a4.622 4.622 0 0 1 3.16 1.3 4.478 4.478 0 0 1 1.32 3.2v24a4.478 4.478 0 0 1-1.32 3.2 4.212 4.212 0 0 1-3.16 1.3h-30a4.269 4.269 0 0 1-3.2-1.3 4.478 4.478 0 0 1-1.32-3.2v-24a4.478 4.478 0 0 1 1.32-3.2 4.681 4.681 0 0 1 3.2-1.3H6v-4.5a12.565 12.565 0 0 1 1.07-5.2A12.893 12.893 0 0 1 9.97 4a12.343 12.343 0 0 1 4.29-2.9 13.055 13.055 0 0 1 10.49 0A12.343 12.343 0 0 1 29.04 4a12.893 12.893 0 0 1 2.9 4.3 12.565 12.565 0 0 1 1.07 5.2V18h1.5zM8.99 13.5V18h21v-4.5a10.531 10.531 0 0 0-.82-4.1 9.529 9.529 0 0 0-2.25-3.3A10.1 10.1 0 0 0 19.51 3a11.159 11.159 0 0 0-4.09.8 10.707 10.707 0 0 0-3.34 2.3 9.833 9.833 0 0 0-2.26 3.3 10.541 10.541 0 0 0-.83 4.1zM36 46.5v-24a1.584 1.584 0 0 0-.44-1.1 1.363 1.363 0 0 0-1.05-.4h-30a1.385 1.385 0 0 0-1.06.4 1.584 1.584 0 0 0-.44 1.1v24a1.584 1.584 0 0 0 .44 1.1 1.385 1.385 0 0 0 1.06.4h30a1.363 1.363 0 0 0 1.05-.4 1.584 1.584 0 0 0 .44-1.1z" fill="#ccc" fill-rule="evenodd"/></svg>