<svg xmlns="http://www.w3.org/2000/svg" width="60" height="48"><path d="M52.5 28.5a1.133 1.133 0 0 0 .57-.1 3.349 3.349 0 0 0 .48-.3l6.01-6a1.595 1.595 0 0 0 0-2.2 1.875 1.875 0 0 0-1.05-.4 1.906 1.906 0 0 0-1.06.4l-3.46 3.5a24.73 24.73 0 0 0-.54-4.6 23.658 23.658 0 0 0-1.37-4.3 20.6 20.6 0 0 0-2.19-3.9A23.048 23.048 0 0 0 46.96 7a27.824 27.824 0 0 0-3.66-3 30.641 30.641 0 0 0-4.12-2.2A22.625 22.625 0 0 0 34.72.5 18.708 18.708 0 0 0 30 0a23.49 23.49 0 0 0-6.49.9 24.3 24.3 0 0 0-5.9 2.5 23.308 23.308 0 0 0-5.01 4.1 21.563 21.563 0 0 0-3.84 5.3 1.3 1.3 0 0 0-.1 1.1 1.474 1.474 0 0 0 .74.9 1.143 1.143 0 0 0 1.13.1 1.272 1.272 0 0 0 .9-.7 21.954 21.954 0 0 1 3.35-4.7A25.685 25.685 0 0 1 19.16 6a19.034 19.034 0 0 1 5.16-2.2A21.522 21.522 0 0 1 30 3a20.417 20.417 0 0 1 8.16 1.7 19.531 19.531 0 0 1 6.68 4.4 23.238 23.238 0 0 1 4.51 6.7 20.721 20.721 0 0 1 1.66 8.2v3a1.309 1.309 0 0 0 .24.8 1.269 1.269 0 0 0 .66.6.367.367 0 0 1 .3.1h.29zM30 48a23.49 23.49 0 0 0 6.49-.9 24.3 24.3 0 0 0 5.9-2.5 23.308 23.308 0 0 0 5.01-4.1 21.563 21.563 0 0 0 3.84-5.3 1.3 1.3 0 0 0 .1-1.1 1.486 1.486 0 0 0-1.87-1 1.272 1.272 0 0 0-.9.7 22.265 22.265 0 0 1-3.34 4.7 24.216 24.216 0 0 1-4.38 3.5 19.231 19.231 0 0 1-5.17 2.2A21.522 21.522 0 0 1 30 45a20.417 20.417 0 0 1-8.16-1.7 21.326 21.326 0 0 1-11.19-11.1A20.721 20.721 0 0 1 8.99 24v-3a1.253 1.253 0 0 0-.25-.8 1.216 1.216 0 0 0-.65-.6 2.679 2.679 0 0 0-.88-.1 1.908 1.908 0 0 0-.76.4L.44 26A1.213 1.213 0 0 0 0 27a1.584 1.584 0 0 0 .44 1.1 1.363 1.363 0 0 0 1.05.4 1.385 1.385 0 0 0 1.06-.4l3.46-3.5a24.88 24.88 0 0 0 .54 4.6 23.658 23.658 0 0 0 1.37 4.3 24.242 24.242 0 0 0 2.19 3.9 23.048 23.048 0 0 0 2.93 3.6 27.824 27.824 0 0 0 3.66 3 22.375 22.375 0 0 0 4.12 2.2 22.625 22.625 0 0 0 4.46 1.3A18.708 18.708 0 0 0 30 48z" fill="#ccc" fill-rule="evenodd"/></svg>