<svg xmlns="http://www.w3.org/2000/svg" width="47.5" height="42.5"><path d="M23.755 42.5a1.1 1.1 0 0 0 .3-.04 1.139 1.139 0 0 0 .305-.11c.049-.03.411-.25 1.087-.64s1.546-.96 2.612-1.68 2.274-1.58 3.625-2.61 2.735-2.17 4.151-3.44c.83-.77 1.623-1.53 2.38-2.3s1.469-1.53 2.136-2.29 1.286-1.53 1.856-2.31 1.1-1.54 1.587-2.31a25.375 25.375 0 0 0 2.758-5.87 20.685 20.685 0 0 0 .708-2.9 17.328 17.328 0 0 0 .245-2.87 12.64 12.64 0 0 0-1.038-5.1 13.233 13.233 0 0 0-7-7 12.713 12.713 0 0 0-5.1-1.04 10.8 10.8 0 0 0-1.868.17 12.684 12.684 0 0 0-1.867.51 13.548 13.548 0 0 0-1.832.8 14.11 14.11 0 0 0-1.757 1.11 14.48 14.48 0 0 0-1.844 1.6 12.253 12.253 0 0 0-1.452 1.8 14.349 14.349 0 0 0-1.465-1.8 13.893 13.893 0 0 0-1.831-1.6 13.749 13.749 0 0 0-1.77-1.11 14.251 14.251 0 0 0-1.843-.8A12.731 12.731 0 0 0 14.97.16a10.666 10.666 0 0 0-1.843-.17 12.691 12.691 0 0 0-5.115 1.04 13.265 13.265 0 0 0-6.983 7 12.639 12.639 0 0 0-1.037 5.1A18.2 18.2 0 0 0 .224 16a19.572 19.572 0 0 0 .7 2.9 23.582 23.582 0 0 0 1.159 2.93 25.894 25.894 0 0 0 1.624 2.94q.708 1.155 1.574 2.31c.578.78 1.2 1.54 1.868 2.31s1.375 1.53 2.124 2.29 1.546 1.53 2.393 2.3c1.416 1.27 2.8 2.41 4.15 3.44s2.56 1.9 3.626 2.61 1.932 1.28 2.6 1.68 1.033.61 1.1.64a1.182 1.182 0 0 0 .293.11 1.083 1.083 0 0 0 .318.04zM13.135 2.51a8.622 8.622 0 0 1 3.112.58 11.591 11.591 0 0 1 4.993 3.69 8.125 8.125 0 0 1 1.319 2.37 1.258 1.258 0 0 0 1.2.85 1.2 1.2 0 0 0 .72-.24 1.242 1.242 0 0 0 .452-.61 8.1 8.1 0 0 1 1.318-2.37 11.392 11.392 0 0 1 2.209-2.15 11.911 11.911 0 0 1 2.808-1.54 8.623 8.623 0 0 1 3.113-.58 10.384 10.384 0 0 1 4.126.83 10.787 10.787 0 0 1 3.381 2.27 10.606 10.606 0 0 1 2.283 3.38 10.431 10.431 0 0 1 .83 4.14 15.927 15.927 0 0 1-.989 5.54 26.19 26.19 0 0 1-2.551 5.12 33.331 33.331 0 0 1-3.491 4.52 56.675 56.675 0 0 1-3.76 3.76q-1.66 1.515-3.272 2.78c-1.074.83-2.079 1.58-3.015 2.23s-1.766 1.21-2.49 1.67-1.282.82-1.672 1.06c-.407-.24-.973-.59-1.7-1.06s-1.55-1.02-2.478-1.67-1.933-1.4-3.015-2.23-2.169-1.77-3.259-2.78a51.3 51.3 0 0 1-3.772-3.76 33.739 33.739 0 0 1-3.479-4.52 26.642 26.642 0 0 1-2.564-5.12 15.756 15.756 0 0 1-1-5.54 10.3 10.3 0 0 1 .842-4.14 10.873 10.873 0 0 1 2.283-3.38 10.607 10.607 0 0 1 3.381-2.27 10.475 10.475 0 0 1 4.139-.83z" fill="#ccc" fill-rule="evenodd"/></svg>