<svg xmlns="http://www.w3.org/2000/svg" width="51.313" height="35.09"><path d="M25.655 27a9.2 9.2 0 0 0 3.665-.74 9.521 9.521 0 0 0 5.036-5.04 9.507 9.507 0 0 0 0-7.35 9.386 9.386 0 0 0-2.03-2.99 9.9 9.9 0 0 0-3.006-2.04 9.362 9.362 0 0 0-7.343 0 9.64 9.64 0 0 0-5.036 5.03 9.356 9.356 0 0 0 0 7.35 9.762 9.762 0 0 0 2.03 3.01A9.392 9.392 0 0 0 25.655 27zm0-16.19a6.6 6.6 0 0 1 2.624.53 7.011 7.011 0 0 1 2.149 1.43 6.712 6.712 0 0 1 1.977 4.79 6.541 6.541 0 0 1-.527 2.62 6.7 6.7 0 0 1-1.45 2.14 7.068 7.068 0 0 1-2.149 1.45 6.645 6.645 0 0 1-5.248 0 7.051 7.051 0 0 1-2.148-1.45 6.669 6.669 0 0 1-1.45-2.14 6.525 6.525 0 0 1-.528-2.62 6.718 6.718 0 0 1 1.978-4.79 7 7 0 0 1 2.148-1.43 6.6 6.6 0 0 1 2.624-.53zM9.439 18.9a1.336 1.336 0 0 0 .976-.39 1.3 1.3 0 0 0 .395-.95 14.5 14.5 0 0 1 1.161-5.79 14.917 14.917 0 0 1 7.9-7.91 14.832 14.832 0 0 1 9.439-.71 15.329 15.329 0 0 1 3.375 1.32 14.714 14.714 0 0 1 5.339 4.86 1.283 1.283 0 0 0 .857.58 1.393 1.393 0 0 0 1.015-.18 1.294 1.294 0 0 0 .58-.87 1.249 1.249 0 0 0-.21-1 17.348 17.348 0 0 0-6.315-5.78A17.935 17.935 0 0 0 29.969.54a17.588 17.588 0 0 0-10.837.71 17.713 17.713 0 0 0-9.255 8.61 17.15 17.15 0 0 0-1.727 6.33h-6.8a1.306 1.306 0 0 0-.95.39 1.343 1.343 0 0 0-.395.98A1.34 1.34 0 0 0 1.35 18.9h8.094zm16.216 16.19a17.02 17.02 0 0 0 6.526-1.25A17.514 17.514 0 0 0 37.6 30.4a17.887 17.887 0 0 0 3.823-5.16 16.649 16.649 0 0 0 1.714-6.34h6.8a1.336 1.336 0 0 0 .976-.39 1.3 1.3 0 0 0 .395-.95 1.341 1.341 0 0 0-1.371-1.37h-8.094a1.3 1.3 0 0 0-.95.39 1.343 1.343 0 0 0-.395.98 14.3 14.3 0 0 1-1.173 5.76 15.006 15.006 0 0 1-7.911 7.91 14.752 14.752 0 0 1-9.413.71 15.274 15.274 0 0 1-3.375-1.3 14.056 14.056 0 0 1-2.953-2.09 15.3 15.3 0 0 1-2.412-2.79 1.2 1.2 0 0 0-.844-.58 1.341 1.341 0 0 0-1.028.21 1.352 1.352 0 0 0-.37 1.87 17.852 17.852 0 0 0 2.848 3.3 17.687 17.687 0 0 0 7.475 4.01 17.68 17.68 0 0 0 4.311.52z" fill="#999" fill-rule="evenodd"/></svg>