<svg xmlns="http://www.w3.org/2000/svg" width="50" height="48.75"><path d="M50 47.35v.148a1.251 1.251 0 0 1-1.245 1.245H1.245a1.3 1.3 0 0 1-.488-.1 1.073 1.073 0 0 1-.415-.292 1.16 1.16 0 0 1-.281-.439A1.133 1.133 0 0 1 0 47.423l2.515-35.01a1.229 1.229 0 0 1 1.245-1.171h5.713L20.361.376a1.271 1.271 0 0 1 1.783 0l10.864 10.866h3.979l-6.982-6.984-.367.367a1.268 1.268 0 0 1-1.782 0 1.239 1.239 0 0 1 0-1.758l1.27-1.244a1.236 1.236 0 0 1 1.758 0l9.643 9.619h5.713a1.229 1.229 0 0 1 1.245 1.171L50 47.35zM21.24 3.015l-8.227 8.228h16.479L21.24 3.015zM2.588 46.25h44.824l-2.319-32.5H4.907l-2.319 32.5zM25 33.75a7.309 7.309 0 0 0 2.014-.281 8.362 8.362 0 0 0 1.9-.806 9.254 9.254 0 0 0 1.746-1.305 11.286 11.286 0 0 0 1.54-1.808 13.37 13.37 0 0 0 1.209-2.063 15.962 15.962 0 0 0 .878-2.32 17.5 17.5 0 0 0 .537-2.514 18.925 18.925 0 0 0 .184-2.65 1.2 1.2 0 0 0-.367-.878 1.223 1.223 0 0 0-.9-.366 1.25 1.25 0 0 0-1.245 1.244 17.212 17.212 0 0 1-.147 2.259 14.079 14.079 0 0 1-.451 2.148 14.488 14.488 0 0 1-.733 1.966 10.066 10.066 0 0 1-1.013 1.733 8.078 8.078 0 0 1-2.38 2.332 5.108 5.108 0 0 1-5.542 0 8.08 8.08 0 0 1-2.381-2.332 10.2 10.2 0 0 1-1.013-1.733 14.354 14.354 0 0 1-.732-1.966 14.08 14.08 0 0 1-.452-2.148 17.386 17.386 0 0 1-.146-2.259 1.25 1.25 0 0 0-1.245-1.244 1.225 1.225 0 0 0-.9.366 1.2 1.2 0 0 0-.366.878 19.078 19.078 0 0 0 .183 2.65 17.635 17.635 0 0 0 .537 2.514 15.85 15.85 0 0 0 .879 2.32A13.211 13.211 0 0 0 17.8 29.55a11.235 11.235 0 0 0 1.538 1.807 9.28 9.28 0 0 0 1.745 1.305 8.389 8.389 0 0 0 1.905.806A7.3 7.3 0 0 0 25 33.75z" fill="#ccc" fill-rule="evenodd"/></svg>