<svg xmlns="http://www.w3.org/2000/svg" width="42.5" height="47.5"><path d="M38.76 0a3.751 3.751 0 0 1 3.74 3.739v40.015a3.752 3.752 0 0 1-3.735 3.736H6.24a3.752 3.752 0 0 1-3.735-3.736V40H1.26a1.228 1.228 0 0 1-.9-.367 1.239 1.239 0 0 1 0-1.758 1.228 1.228 0 0 1 .9-.366h1.245v-2.515H1.26a1.225 1.225 0 0 1-.9-.367 1.237 1.237 0 0 1 0-1.757 1.227 1.227 0 0 1 .9-.365h1.245v-2.491H1.26a1.252 1.252 0 0 1-1.27-1.269 1.2 1.2 0 0 1 .366-.879 1.225 1.225 0 0 1 .9-.368h1.245V25H1.26a1.228 1.228 0 0 1-.9-.366 1.2 1.2 0 0 1-.366-.879 1.252 1.252 0 0 1 1.27-1.27h1.245V20H1.26a1.224 1.224 0 0 1-.9-.366 1.239 1.239 0 0 1 0-1.758 1.228 1.228 0 0 1 .9-.366h1.245v-2.515H1.26a1.228 1.228 0 0 1-.9-.366 1.239 1.239 0 0 1 0-1.758 1.231 1.231 0 0 1 .9-.366h1.245V9.99H1.26a1.224 1.224 0 0 1-.9-.366 1.239 1.239 0 0 1 0-1.758 1.224 1.224 0 0 1 .9-.366h1.245V3.74A3.751 3.751 0 0 1 6.24 0h32.52zm1.245 43.75V3.739a1.25 1.25 0 0 0-1.245-1.245H6.24a1.25 1.25 0 0 0-1.245 1.245v3.76h3.76a1.245 1.245 0 0 1 0 2.49H5V12.5h3.76a1.245 1.245 0 0 1 0 2.49H5v2.515h3.76a1.245 1.245 0 0 1 0 2.49H5v2.49h3.76a1.2 1.2 0 0 1 .879.367 1.227 1.227 0 0 1 .366.9A1.25 1.25 0 0 1 8.755 25H5v2.489h3.76a1.253 1.253 0 0 1 1.245 1.247 1.226 1.226 0 0 1-.366.9 1.2 1.2 0 0 1-.879.367H5V32.5h3.76a1.245 1.245 0 0 1 0 2.489H5V37.5h3.76a1.246 1.246 0 0 1 0 2.491H5v3.759A1.25 1.25 0 0 0 6.24 45h32.52a1.25 1.25 0 0 0 1.245-1.245zm-14.722-8.423q1.561 0 2.991-.024t2.551-.074q1.879-.049 2.5-.134a3.586 3.586 0 0 0 .843-.183 1.9 1.9 0 0 0 1.172-1.136 3.493 3.493 0 0 0 .171-1.989 6.668 6.668 0 0 0-.977-2.405 8.21 8.21 0 0 0-1.929-2.087 9.961 9.961 0 0 0-1.574-.989 11.03 11.03 0 0 0-1.807-.719 13.1 13.1 0 0 0-2.026-.441A16.09 16.09 0 0 0 25.013 25h-.023a14.436 14.436 0 0 0-4.761.769 8.783 8.783 0 0 0-1.66.757 13.48 13.48 0 0 0-1.221.818 8.941 8.941 0 0 0-1.916 2.124 6.3 6.3 0 0 0-.964 2.417 3.4 3.4 0 0 0 .207 1.952 1.937 1.937 0 0 0 1.184 1.1 7.98 7.98 0 0 0 1.563.2q1.171.072 2.612.123t2.881.06q1.44.012 2.368.012zm-8.374-2.734a3.1 3.1 0 0 1 .147-.782 4.287 4.287 0 0 1 .586-1.171 6.367 6.367 0 0 1 .842-.978 6.672 6.672 0 0 1 1.428-1.024 9.218 9.218 0 0 1 2.136-.818 11.661 11.661 0 0 1 2.942-.331h.025a11.777 11.777 0 0 1 2.966.331 9.218 9.218 0 0 1 2.136.818 6.378 6.378 0 0 1 1.416 1.024 6.044 6.044 0 0 1 .83 1 3.749 3.749 0 0 1 .574 1.159 3.557 3.557 0 0 1 .134.77q-.635.072-2.539.146t-5.249.073q-1.563 0-2.917-.012t-2.43-.049q-1.074-.036-1.843-.073a18.469 18.469 0 0 1-1.184-.085zm8.081-10.108a4.872 4.872 0 0 0 1.953-.39 5.166 5.166 0 0 0 1.587-1.063 5.009 5.009 0 0 0 1.074-5.48 5.061 5.061 0 0 0-2.661-2.661 4.983 4.983 0 0 0-5.481 1.074 5.163 5.163 0 0 0-1.062 1.587 5.052 5.052 0 0 0 0 3.893 4.968 4.968 0 0 0 4.59 3.04zm0-7.5a2.5 2.5 0 0 1 2.515 2.515 2.4 2.4 0 0 1-.733 1.758 2.425 2.425 0 0 1-1.782.732 2.5 2.5 0 0 1-2.49-2.49 2.425 2.425 0 0 1 .732-1.782 2.4 2.4 0 0 1 1.758-.733z" fill="#ccc" fill-rule="evenodd"/></svg>