<svg xmlns="http://www.w3.org/2000/svg" width="50" height="42.5"><path d="M48.755 40.01a1.18 1.18 0 0 0 .879-.37 1.211 1.211 0 0 0 .366-.9 1.138 1.138 0 0 0-.11-.5 1.29 1.29 0 0 0-.281-.4 15.433 15.433 0 0 1-2.112-2.47 10.859 10.859 0 0 1-.769-1.37 9.992 9.992 0 0 0 2.43-3.02A7.609 7.609 0 0 0 50 27.51a7.447 7.447 0 0 0-.281-2.04 8.4 8.4 0 0 0-.806-1.9 8.915 8.915 0 0 0-1.306-1.75 11.338 11.338 0 0 0-1.806-1.54 14.476 14.476 0 0 0-2.063-1.18 15.2 15.2 0 0 0-2.32-.88 16.85 16.85 0 0 0-2.514-.54 19.582 19.582 0 0 0-5.3 0 16.863 16.863 0 0 0-2.515.54 15.187 15.187 0 0 0-2.319.88 15.656 15.656 0 0 0-2.088 1.18 11.879 11.879 0 0 0-1.782 1.54 9.315 9.315 0 0 0-1.318 1.75 7.639 7.639 0 0 0-1.074 3.94 7.645 7.645 0 0 0 .268 2.01 7.8 7.8 0 0 0 .806 1.91 9.587 9.587 0 0 0 1.318 1.74 11.333 11.333 0 0 0 1.782 1.54 13.813 13.813 0 0 0 2.088 1.2 16.24 16.24 0 0 0 2.319.86 16.863 16.863 0 0 0 2.515.54 19.365 19.365 0 0 0 2.649.18 20.438 20.438 0 0 0 2.221-.12 15.267 15.267 0 0 0 2.149-.39c.325.23.773.51 1.343.86a16.22 16.22 0 0 0 1.941.98 16.973 16.973 0 0 0 2.331.83 9.01 9.01 0 0 0 2.515.36zm-7.862-5.64a1.075 1.075 0 0 0-.183.01.761.761 0 0 0-.158.04 16.133 16.133 0 0 1-2.112.44 17.72 17.72 0 0 1-2.185.14 17.034 17.034 0 0 1-2.283-.15 15.9 15.9 0 0 1-2.136-.46 12.876 12.876 0 0 1-1.965-.73 11.841 11.841 0 0 1-1.746-1 7.91 7.91 0 0 1-2.32-2.38 5.185 5.185 0 0 1 0-5.55 7.853 7.853 0 0 1 2.32-2.4 12.506 12.506 0 0 1 3.711-1.73 14.483 14.483 0 0 1 2.136-.45 15.515 15.515 0 0 1 2.283-.16 15.35 15.35 0 0 1 2.258.16 14.937 14.937 0 0 1 2.149.45 12.348 12.348 0 0 1 1.965.73 13.214 13.214 0 0 1 1.733 1 7.994 7.994 0 0 1 2.332 2.4 5.258 5.258 0 0 1 .818 2.78 5.156 5.156 0 0 1-.745 2.62 8.042 8.042 0 0 1-2.112 2.34 1.122 1.122 0 0 0-.293.29 1.017 1.017 0 0 0-.171.39 3.231 3.231 0 0 0 .049 1.22 6.768 6.768 0 0 0 1.148 2.37 15.574 15.574 0 0 1-2.637-1.37c-.733-.49-1.107-.73-1.123-.73a1.251 1.251 0 0 0-.342-.2 1.078 1.078 0 0 0-.391-.07zM1.245 42.5a13.562 13.562 0 0 0 2.051-.17 18.4 18.4 0 0 0 2.27-.53c.8-.23 1.628-.53 2.49-.87.863-.36 1.758-.76 2.686-1.21q1.782-.915 3.223-1.77 1.44-.87 2.246-1.41a29.912 29.912 0 0 0 3.7.71 30.51 30.51 0 0 0 3.845.24 1.239 1.239 0 0 0 1.245-1.24 1.2 1.2 0 0 0-.366-.88 1.22 1.22 0 0 0-.879-.37 27.752 27.752 0 0 1-3.784-.25 26.154 26.154 0 0 1-3.638-.77 1.448 1.448 0 0 0-.549-.04 1.114 1.114 0 0 0-.5.21q-.977.66-2.1 1.35t-2.331 1.35c-.806.43-1.624.83-2.454 1.21s-1.652.7-2.466 1a17.113 17.113 0 0 0 1.7-2.18 20 20 0 0 0 1.16-2 14.514 14.514 0 0 0 .72-1.66q.256-.735.379-1.14a1.259 1.259 0 0 0-.037-.75 1.223 1.223 0 0 0-.452-.6 17.62 17.62 0 0 1-2.942-2.53 15.642 15.642 0 0 1-2.16-2.91 14.189 14.189 0 0 1-1.343-3.19 12.367 12.367 0 0 1-.464-3.36 12.644 12.644 0 0 1 1.673-6.31 17.006 17.006 0 0 1 4.565-5.17 22.388 22.388 0 0 1 6.763-3.48 26.239 26.239 0 0 1 8.264-1.27 27.19 27.19 0 0 1 3.845.27 27.866 27.866 0 0 1 3.686.78 23.767 23.767 0 0 1 3.455 1.28 20.147 20.147 0 0 1 3.1 1.77 19 19 0 0 1 2.588 2.09 17.034 17.034 0 0 1 2.05 2.38 14.312 14.312 0 0 1 1.465 2.61 13.434 13.434 0 0 1 .855 2.78 1.253 1.253 0 0 0 .512.81 1.172 1.172 0 0 0 .928.2 1.261 1.261 0 0 0 .806-.53 1.163 1.163 0 0 0 .195-.92 14.577 14.577 0 0 0-.977-3.27 17.981 17.981 0 0 0-1.7-3.05 18.556 18.556 0 0 0-2.356-2.77 21.9 21.9 0 0 0-2.954-2.4 23.776 23.776 0 0 0-3.443-1.95 27.357 27.357 0 0 0-3.8-1.41 29.563 29.563 0 0 0-12.9-.83 27.253 27.253 0 0 0-4.382 1.04 26.076 26.076 0 0 0-4.053 1.69 24.21 24.21 0 0 0-3.6 2.31c-.554.42-1.079.87-1.575 1.33a16.5 16.5 0 0 0-1.379 1.44c-.424.5-.822 1.01-1.2 1.54a13.682 13.682 0 0 0-1 1.65 16.1 16.1 0 0 0-1.441 3.61 14.8 14.8 0 0 0-.488 3.78 15.045 15.045 0 0 0 .476 3.76 15.756 15.756 0 0 0 1.4 3.58 17.9 17.9 0 0 0 2.27 3.27 20.672 20.672 0 0 0 3.052 2.87 14.28 14.28 0 0 1-.684 1.62 12.759 12.759 0 0 1-1.257 2.05 17.367 17.367 0 0 1-1.929 2.21 14.069 14.069 0 0 1-2.722 2.08 1.257 1.257 0 0 0-.525.61 1.284 1.284 0 0 0 .4 1.45 1.242 1.242 0 0 0 .757.26z" fill="#ccc" fill-rule="evenodd"/></svg>