<?xml version="1.0" encoding="utf-8"?>
<!-- Generator: Adobe Illustrator 22.1.0, SVG Export Plug-In . SVG Version: 6.00 Build 0)  -->
<svg version="1.1" id="レイヤー_1" xmlns="http://www.w3.org/2000/svg" xmlns:xlink="http://www.w3.org/1999/xlink" x="0px"
	 y="0px" viewBox="0 0 38.8 39.1" style="enable-background:new 0 0 38.8 39.1;" xml:space="preserve">
<style type="text/css">
	.st0{fill:none;stroke:#CCCCCC;stroke-width:1.5;stroke-linecap:round;stroke-linejoin:round;stroke-miterlimit:10;}
</style>
<g>
	<path class="st0" d="M10.7,7.7L6.2,4.8L5.5,5.5c0,0,3.4,3.4,2.4,3.5S4.6,6.4,4.6,6.4L3.6,7.4l2.8,4.7l2.8,0.6l5.4,5.3l2-2.2
		l-5.2-5.2L10.7,7.7z"/>
	<path class="st0" d="M33.4,29.7c-0.4-0.8-8.3-8.3-8.3-8.3l-5.1,5.1l8.3,8.2c0,0,2.4,1.5,4.5-0.3C35,32.6,34,30.5,33.4,29.7z"/>
</g>
<path class="st0" d="M32.4,14.5c0.8-1,2.2-2.8,2.4-3.8c0.5-2-6.4-7.8-7.9-6.5c-0.3,0.3-1.7,1.2-3.5,2.9c-0.1-0.3-0.2-0.8-1-0.3
	C21.7,7.1,19.5,8.9,19,11c-0.2,0.7,0.7,1.7,1.5,2.8c0.8,1.1-1.9,3.6-1.9,3.6L5.1,29.7c0,0-2.1,1.8-0.3,4.5c1.9,2.7,4.6-0.5,4.6-0.5
	s12.3-13.5,13.1-14.3c1.8-1.3,1.8-1,3.1-1.4c1.4,0,2.8,1.8,3.7,1.2c0.8-0.5,2.7-1.9,3.9-4.2C33.3,14,32.4,14.5,32.4,14.5z
	 M27.9,17.8l-7.4-6.1l1.4-1.5l7.6,6.3L27.9,17.8z"/>
</svg>
