<?xml version="1.0" encoding="utf-8"?>
<!-- Generator: Adobe Illustrator 22.0.1, SVG Export Plug-In . SVG Version: 6.00 Build 0)  -->
<svg version="1.1" id="レイヤー_1" xmlns="http://www.w3.org/2000/svg" xmlns:xlink="http://www.w3.org/1999/xlink" x="0px"
	 y="0px" viewBox="0 0 512 512" style="enable-background:new 0 0 512 512;" xml:space="preserve">
<style type="text/css">
	.st0{fill:none;stroke:#CCCCCC;stroke-width:20;stroke-miterlimit:10;}
	.st1{fill:none;stroke:#CCCCCC;stroke-width:20;stroke-miterlimit:10;stroke-dasharray:35.8353,26.8765;}
</style>
<title></title>
<g id="icomoon-ignore">
</g>
<path class="st0" d="M484.5,155.9l-34.3-34.3l-14.9,14.9c-7.6,7.6-18.2,12.4-29.9,12.4c-23.3,0-42.3-18.9-42.3-42.2
	c0-11.7,4.7-22.2,12.4-29.9l14.9-14.9l-34.3-34.3c-14-14-36.9-14-50.9,0L27.5,305.3c-14,14-14,36.9,0,50.9l34.3,34.3l14.9-14.9
	c7.6-7.7,18.2-12.4,29.9-12.4c23.3,0,42.2,18.9,42.2,42.2c0,11.7-4.7,22.2-12.4,29.9l-14.9,14.9l34.3,34.3c14,14,36.9,14,50.9,0
	l277.8-277.8C498.5,192.8,498.5,169.9,484.5,155.9L484.5,155.9z"/>
<g>
	<g>
		<line class="st0" x1="234.8" y1="96.9" x2="248.9" y2="111"/>
		<line class="st1" x1="267.9" y1="130" x2="391.5" y2="253.6"/>
		<line class="st0" x1="401" y1="263.1" x2="415.1" y2="277.2"/>
	</g>
</g>
</svg>
