<svg xmlns="http://www.w3.org/2000/svg" width="50" height="43.7"><path d="M47.17 5.5a6.608 6.608 0 0 1 2.29 2.9 7.524 7.524 0 0 1 .54 2.5V14a3.21 3.21 0 0 1-.24 1.2 3.035 3.035 0 0 1-.69 1l-1.56 1.6a3.747 3.747 0 0 1-1.03.7 4.782 4.782 0 0 1-1.17.2h-.58c-.2-.1-.39-.1-.59-.2l-7.81-3.2a2.916 2.916 0 0 1-1.42-1.1 3 3 0 0 1-.54-1.8V7a31.675 31.675 0 0 0-4.51-.6c-1.58-.1-3.2-.2-4.86-.2s-3.28.1-4.86.2a32.012 32.012 0 0 0-4.52.6v5.4a2.992 2.992 0 0 1-.53 1.8 2.916 2.916 0 0 1-1.42 1.1l-7.81 3.2c-.2.1-.39.1-.59.2h-.58a4.782 4.782 0 0 1-1.17-.2 3.6 3.6 0 0 1-1.03-.7L.93 16.2a3.035 3.035 0 0 1-.69-1A3.21 3.21 0 0 1 0 14v-3.1a7.524 7.524 0 0 1 .54-2.5 6.536 6.536 0 0 1 2.29-2.9 13.128 13.128 0 0 1 2.44-1.7c.95-.5 2.02-.9 3.23-1.4 1.1-.4 2.3-.7 3.58-1.1 1.29-.3 2.63-.5 4.03-.7s2.84-.4 4.32-.5S23.44-.1 25-.1s3.08.1 4.57.2 2.92.3 4.32.5 2.74.4 4.02.7c1.29.4 2.49.7 3.59 1.1 1.21.5 2.28.9 3.23 1.4a13.128 13.128 0 0 1 2.44 1.7zm-.49 30.2a6.647 6.647 0 0 1 .19 3 5.632 5.632 0 0 1-1.07 2.6 6.531 6.531 0 0 1-2.22 1.8 7.184 7.184 0 0 1-2.96.6H9.37a7.17 7.17 0 0 1-2.95-.6 6.437 6.437 0 0 1-2.22-1.8 5.75 5.75 0 0 1-1.08-2.6 6.8 6.8 0 0 1 .2-3c.03-.1.33-.9.88-2.6a51.23 51.23 0 0 1 2.29-5.6 17.947 17.947 0 0 1 2.45-3.8 15.883 15.883 0 0 1 3.17-2.8 12.839 12.839 0 0 1 3.81-1.6 15.577 15.577 0 0 1 4.39-.6h9.38a15.577 15.577 0 0 1 4.39.6 12.839 12.839 0 0 1 3.81 1.6 15.883 15.883 0 0 1 3.17 2.8 17.947 17.947 0 0 1 2.45 3.8 51.23 51.23 0 0 1 2.29 5.6c.55 1.7.85 2.5.88 2.6zM25 37.4a6.084 6.084 0 0 0 4.42-1.8 6.2 6.2 0 0 0 0-8.8 6.091 6.091 0 0 0-8.84 0 6.2 6.2 0 0 0 0 8.8A6.068 6.068 0 0 0 25 37.4z" fill="#ccc" fill-rule="evenodd"/></svg>